<svg width="40" height="40" viewBox="0 0 40 40" fill="none" xmlns="http://www.w3.org/2000/svg">
<g id="Simplification" clip-path="url(#clip0_1_303)">
<path id="Vector" d="M19.9902 -0.0781023C20.2668 -0.0847491 20.2668 -0.0847491 20.549 -0.0915301C21.8869 -0.0945587 21.8869 -0.0945587 22.5305 0.327171C22.8497 0.841167 22.9777 1.287 23.1152 1.87502C23.3451 2.58012 23.4521 2.88439 24.0966 3.26846C24.6699 3.47264 24.6699 3.47264 25.2386 3.61025C25.7812 3.75002 25.7812 3.75002 26.2701 4.01186C26.79 4.25167 26.9676 4.24796 27.5 4.06252C27.7608 3.93643 28.0181 3.80263 28.2715 3.66213C29.3594 3.11416 29.3594 3.11416 30 3.28127C30.4639 3.59931 30.8499 3.9813 31.25 4.37502C31.4587 4.56415 31.4587 4.56415 31.6717 4.7571C31.8129 4.88883 31.9541 5.02055 32.0996 5.15627C32.2315 5.27873 32.3634 5.40119 32.4994 5.52737C32.8989 6.05071 32.9637 6.37497 32.9687 7.03127C32.7734 7.55495 32.7734 7.55495 32.5 8.06643C32.1325 8.71942 32.1325 8.71942 32.0507 9.44094C32.2338 9.98043 32.4384 10.509 32.6562 11.0352C33.1124 12.1498 33.1124 12.1498 33.2812 12.6563C33.8018 12.8746 34.3228 13.0537 34.859 13.2285C35.0248 13.2857 35.0248 13.2857 35.1941 13.3441C35.2953 13.3772 35.3966 13.4102 35.501 13.4442C35.881 13.6471 36.0362 13.8447 36.25 14.2188C36.3557 14.8887 36.3368 15.5629 36.3379 16.2403C36.3465 16.5169 36.3465 16.5169 36.3553 16.799C36.3619 18.1007 36.3619 18.1007 36.0683 18.5743C35.5685 19.0238 35.0085 19.1747 34.3652 19.3067C33.7716 19.4864 33.5107 19.5769 33.1646 20.0995C32.9704 20.5817 32.8129 21.067 32.6562 21.5625C32.5375 21.793 32.4144 22.0214 32.2851 22.2461C31.9925 22.8988 31.9642 23.0802 32.1875 23.75C32.3917 24.1767 32.598 24.6004 32.8186 25.0189C33.0224 25.6296 33.0003 25.9434 32.8125 26.5625C32.4752 27.0203 32.0821 27.4028 31.6699 27.793C31.5111 27.9513 31.5111 27.9513 31.3491 28.1128C30.5278 28.9125 30.5278 28.9125 29.8437 29.0625C29.8472 29.1515 29.8507 29.2405 29.8542 29.3322C29.8893 30.2753 29.9126 31.2183 29.9295 32.162C29.9373 32.512 29.9479 32.862 29.9616 33.2119C30.0594 35.7803 29.7187 37.6756 28.2812 39.8438C27.9996 40.1254 27.5713 40.02 27.1917 40.0202C26.8922 40.021 26.8922 40.021 26.5866 40.0217C26.367 40.0215 26.1473 40.0211 25.9277 40.0208C25.7041 40.0209 25.4805 40.021 25.2569 40.0212C24.7877 40.0215 24.3185 40.0211 23.8493 40.0204C23.2466 40.0195 22.6439 40.02 22.0412 40.021C21.5793 40.0215 21.1174 40.0213 20.6555 40.0209C20.4332 40.0208 20.211 40.021 19.9887 40.0213C19.6785 40.0217 19.3684 40.021 19.0582 40.0202C18.7929 40.0201 18.7929 40.0201 18.5223 40.0199C18.125 40 18.125 40 17.9687 39.8438C17.9618 39.5464 17.9569 39.2489 17.9528 38.9514C17.8615 37.6673 17.3243 36.758 16.6601 35.6836C16.5462 35.4929 16.4327 35.302 16.3195 35.1108C16.0936 34.7303 15.8658 34.351 15.636 33.9727C15.1822 33.2244 14.7445 32.4668 14.3066 31.709C14.2357 31.5883 14.1649 31.4677 14.0918 31.3433C13.5787 30.4656 13.4197 29.9207 13.4375 28.9063C13.4375 28.7 13.4375 28.4938 13.4375 28.2813C13.2828 28.2297 13.1281 28.1781 12.9687 28.125C12.5803 28.3161 12.5803 28.3161 12.1679 28.584C11.4881 28.9656 10.9612 29.2242 10.1739 29.1626C9.49709 28.9574 9.07393 28.4654 8.59372 27.9688C8.46662 27.8542 8.33953 27.7396 8.20859 27.6215C8.08109 27.5041 7.95359 27.3866 7.82223 27.2656C7.70481 27.1577 7.58738 27.0497 7.4664 26.9385C7.09275 26.4349 7.0413 26.0935 7.03122 25.4688C7.22653 24.9506 7.22653 24.9506 7.49997 24.4434C7.89636 23.7063 8.04665 23.3153 7.81247 22.5C7.69151 22.2127 7.56108 21.9293 7.42184 21.6504C7.10245 20.9767 6.92441 20.4291 6.87497 19.6875C6.76177 19.6591 6.64858 19.6307 6.53195 19.6015C4.33036 19.029 4.33036 19.029 3.74997 18.2813C3.64442 17.6157 3.67039 16.9426 3.67184 16.2696C3.66741 16.0845 3.66298 15.8994 3.65841 15.7086C3.65538 14.3634 3.65538 14.3634 4.07773 13.7177C4.59065 13.4008 5.02776 13.2838 5.6152 13.1543C6.36286 12.9219 6.36286 12.9219 6.90587 12.3874C7.25248 11.6738 7.44768 10.919 7.65622 10.1563C7.71825 10.0437 7.78029 9.93109 7.84421 9.81509C8.02378 9.40576 7.94141 9.17261 7.81247 8.75002C7.61416 8.32183 7.39958 7.90495 7.18136 7.48659C6.97741 6.86809 6.99228 6.56372 7.18747 5.93752C7.55726 5.45392 7.98453 5.0449 8.4277 4.62893C8.54362 4.51593 8.65953 4.40294 8.77896 4.28652C9.79996 3.29977 9.79996 3.29977 10.429 3.2416C11.1839 3.3005 11.7101 3.66067 12.359 4.02895C13.065 4.32448 13.4292 4.12785 14.1211 3.85317C14.308 3.77079 14.4949 3.68841 14.6875 3.60354C15.7746 3.12677 15.7746 3.12677 16.2152 3.0115C16.667 2.75265 16.7365 2.46137 16.8783 1.97482C16.9062 1.86776 16.9341 1.76071 16.9629 1.65041C17.2561 0.555219 17.2561 0.555219 17.6114 0.204757C18.3265 -0.204926 19.1866 -0.0798522 19.9902 -0.0781023ZM18.4576 1.58877C18.3994 1.73479 18.3412 1.88082 18.2812 2.03127C18.221 2.1769 18.1608 2.32252 18.0987 2.47256C18.0462 2.62019 17.9936 2.76783 17.9394 2.91994C17.8588 3.14321 17.8588 3.14321 17.7765 3.37099C17.6405 3.73339 17.6405 3.73339 17.6562 4.06252C17.5706 4.08367 17.485 4.10482 17.3968 4.12661C16.406 4.39565 15.5191 4.78137 14.6142 5.25977C13.8487 5.64327 13.3361 5.70798 12.5 5.62502C11.9336 5.41994 11.9336 5.41994 11.4062 5.15627C11.229 5.06926 11.0517 4.98225 10.8691 4.8926C10.6709 4.79109 10.6709 4.79109 10.4687 4.68752C10.15 4.981 9.83506 5.2773 9.52145 5.57619C9.43071 5.65908 9.33998 5.74196 9.24649 5.82735C9.0029 6.06229 8.78675 6.28447 8.59372 6.56252C8.58348 7.30635 9.04638 7.9725 9.38107 8.62246C9.67931 9.49658 9.32159 10.1829 8.93551 10.9766C8.16935 12.3833 8.16935 12.3833 7.81247 13.9063C7.71236 13.9347 7.61226 13.9631 7.50912 13.9923C7.37397 14.0316 7.23882 14.0709 7.09958 14.1114C6.96725 14.1494 6.83492 14.1875 6.69858 14.2267C6.17283 14.4005 5.66518 14.6256 5.15622 14.8438C5.15622 15.7719 5.15622 16.7 5.15622 17.6563C5.95683 17.9327 5.95683 17.9327 6.7595 18.203C7.27764 18.3895 7.59196 18.5152 7.94613 18.9484C8.23338 19.6337 8.46934 20.3312 8.70602 21.0352C8.88844 21.5157 9.10257 21.9105 9.37497 22.3438C9.70136 23.2794 9.30285 23.9944 8.90622 24.8438C8.81347 25.0027 8.81347 25.0027 8.71884 25.1648C8.57246 25.4603 8.57246 25.4603 8.60592 25.7685C8.81654 26.2441 9.12951 26.5532 9.49215 26.9239C9.6267 27.065 9.76125 27.2062 9.89987 27.3517C10.28 27.6968 10.28 27.6968 10.7074 27.6496C11.1116 27.4931 11.4705 27.3068 11.8457 27.0899C12.6293 26.684 13.0566 26.6514 13.9062 26.875C14.0609 26.9781 14.2156 27.0813 14.375 27.1875C14.9628 27.1971 15.5439 27.1667 16.1309 27.1375C16.8145 27.1957 17.1212 27.3969 17.6562 27.8125C17.7593 27.8641 17.8625 27.9156 17.9687 27.9688C17.9687 27.2469 17.9687 26.525 17.9687 25.7813C17.8177 25.7245 17.6666 25.6677 17.511 25.6092C14.5851 24.4885 12.4654 23.0079 11.1041 20.0922C10.1839 17.8575 10.1109 15.1281 10.8874 12.8339C11.9987 10.1938 13.84 8.30683 16.4727 7.18691C18.9275 6.23706 21.6391 6.42391 24.0466 7.42556C26.5089 8.5978 28.1699 10.3981 29.1308 12.9688C29.9685 15.4329 29.7271 18.2942 28.6523 20.6348C27.9595 21.9513 26.9929 23.0257 25.9375 24.0625C26.0857 24.1785 26.234 24.2946 26.3867 24.4141C26.7028 24.6615 26.8583 24.8039 27.0147 25.1789C27.1002 25.3224 27.1002 25.3224 27.1875 25.4688C27.5403 25.5495 27.5403 25.5495 27.9394 25.5371C28.5394 25.5752 28.715 25.5995 29.2187 25.9668C29.5411 26.4202 29.7063 26.8068 29.8437 27.3438C30.0165 27.1975 30.1889 27.051 30.3613 26.9043C30.4574 26.8227 30.5534 26.7412 30.6524 26.6571C31.0451 26.3132 31.0451 26.3132 31.4062 25.9375C31.388 25.2991 31.0762 24.7894 30.7715 24.2438C30.4545 23.5134 30.4165 23.0169 30.7049 22.2772C30.8159 22.0217 30.9293 21.7672 31.0449 21.5137C31.1 21.3881 31.1551 21.2625 31.2118 21.1331C31.3232 20.8801 31.4367 20.6281 31.5525 20.3771C31.7236 20.0021 31.7236 20.0021 31.8551 19.6116C32.1897 18.7014 32.1897 18.7014 32.627 18.3958C32.9604 18.2475 33.2822 18.1386 33.6328 18.0371C34.0324 17.9114 34.432 17.7858 34.8437 17.6563C34.8437 16.7281 34.8437 15.8 34.8437 14.8438C34.6085 14.7471 34.3732 14.6504 34.1308 14.5508C33.9886 14.4922 33.8464 14.4336 33.6999 14.3732C33.2568 14.1955 33.2568 14.1955 32.666 14.1114C32.1875 13.9063 32.1875 13.9063 32.044 13.6408C31.9668 13.4032 31.8976 13.1629 31.8347 12.9212C31.7041 12.4468 31.5232 12.014 31.3281 11.5625C31.2622 11.4034 31.1964 11.2443 31.1285 11.0803C31.0111 10.8006 30.8896 10.5226 30.7611 10.2478C30.4562 9.52575 30.4436 9.12691 30.7324 8.38869C30.9018 8.02717 31.0792 7.68076 31.2823 7.33706C31.4255 7.04062 31.4255 7.04062 31.4019 6.73586C31.1689 6.23051 30.7781 5.8858 30.3808 5.50783C30.2589 5.3891 30.2589 5.3891 30.1346 5.26797C29.9345 5.07341 29.733 4.88032 29.5312 4.68752C29.3991 4.7552 29.267 4.82287 29.1308 4.8926C28.865 5.02312 28.865 5.02312 28.5937 5.15627C28.4197 5.24328 28.2457 5.3303 28.0664 5.41994C27.1648 5.74637 26.5462 5.73883 25.6701 5.40224C25.4781 5.30627 25.2873 5.20793 25.0976 5.10744C24.4004 4.75247 23.7813 4.48045 23.0078 4.32619C22.6385 4.22793 22.6385 4.22793 22.3437 4.06252C22.0725 3.56274 21.9847 3.05367 21.875 2.50002C21.6471 1.8238 21.6471 1.8238 21.25 1.25002C20.837 1.21768 20.433 1.19934 20.0195 1.19143C19.9049 1.18559 19.7903 1.17975 19.6722 1.17373C18.9731 1.15866 18.9731 1.15866 18.4576 1.58877ZM13.7207 10.6348C12.0594 12.6027 11.5631 14.8089 11.6889 17.3117C11.8733 19.4421 13.076 21.1765 14.5794 22.6203C15.4718 23.3598 16.7746 24.2188 17.9687 24.2188C17.9732 23.7045 17.976 23.1901 17.9785 22.6758C17.9804 22.4562 17.9804 22.4562 17.9825 22.2321C17.983 22.0921 17.9835 21.9521 17.984 21.8079C17.9848 21.6786 17.9856 21.5493 17.9865 21.4161C17.9896 21.0838 17.9896 21.0838 17.8125 20.7813C17.7992 20.4751 17.7957 20.1685 17.7972 19.8621C17.7977 19.6798 17.7982 19.4975 17.7987 19.3097C17.8007 19.023 17.8007 19.023 17.8027 18.7305C17.8034 18.5381 17.8041 18.3458 17.8048 18.1476C17.8067 17.6713 17.8093 17.195 17.8125 16.7188C18.5086 16.6414 18.5086 16.6414 19.2187 16.5625C19.2246 16.2893 19.2246 16.2893 19.2306 16.0106C19.2453 15.3353 19.2609 14.66 19.2769 13.9847C19.2837 13.6924 19.2902 13.4 19.2964 13.1077C19.3054 12.6876 19.3154 12.2676 19.3255 11.8476C19.3294 11.6512 19.3294 11.6512 19.3334 11.451C19.3467 10.9318 19.366 10.4957 19.5312 10C19.8406 10 20.15 10 20.4687 10C20.5203 12.1656 20.5718 14.3313 20.625 16.5625C21.1406 16.6141 21.6562 16.6656 22.1875 16.7188C22.192 17.3893 22.1948 18.0599 22.1972 18.7305C22.1985 18.9216 22.1999 19.1128 22.2012 19.3097C22.2017 19.492 22.2022 19.6743 22.2027 19.8621C22.2035 20.0306 22.2044 20.1992 22.2052 20.3729C22.1875 20.7813 22.1875 20.7813 22.0312 21.0938C22.0204 21.3344 22.018 21.5755 22.0215 21.8164C22.0229 21.9441 22.0243 22.0718 22.0257 22.2034C22.0275 22.3013 22.0294 22.3992 22.0312 22.5C22.1895 22.5257 22.1895 22.5257 22.351 22.5519C22.5601 22.5891 22.5601 22.5891 22.7734 22.627C22.9801 22.6623 22.9801 22.6623 23.1909 22.6984C23.5937 22.8125 23.5937 22.8125 23.9087 23.078C24.2118 23.329 24.2118 23.329 24.5953 23.2031C26.4085 22.153 27.6194 20.2035 28.1726 18.2324C28.6125 15.8995 28.2889 13.6268 26.9818 11.6156C25.5618 9.6422 23.6289 8.31547 21.2042 7.87539C18.3667 7.58046 15.7022 8.58478 13.7207 10.6348ZM19.0625 17.9688C19.0625 18.3813 19.0625 18.7938 19.0625 19.2188C19.6812 19.2188 20.3 19.2188 20.9375 19.2188C20.9375 18.8063 20.9375 18.3938 20.9375 17.9688C20.3187 17.9688 19.7 17.9688 19.0625 17.9688ZM19.6875 20.4688C19.2531 20.9031 19.332 21.1691 19.3251 21.7777C19.3236 21.8799 19.322 21.9821 19.3204 22.0873C19.3156 22.4255 19.3129 22.7636 19.3103 23.1018C19.3073 23.3361 19.3043 23.5704 19.3011 23.8046C19.2931 24.4216 19.2869 25.0386 19.2811 25.6556C19.2748 26.2851 19.2668 26.9145 19.259 27.544C19.2439 28.7793 19.2307 30.0147 19.2187 31.25C18.6773 31.3274 18.6773 31.3274 18.125 31.4063C18.0845 31.2973 18.044 31.1883 18.0023 31.0761C17.7931 30.5791 17.545 30.1251 17.2754 29.6582C17.1821 29.4949 17.0888 29.3315 16.9928 29.1632C16.7356 28.7176 16.7356 28.7176 16.25 28.4375C15.6919 28.4503 15.6919 28.4503 15.1562 28.5938C14.7972 29.0298 14.7972 29.0298 14.871 29.5016C15.0125 30.0486 15.2172 30.4563 15.5017 30.9442C15.5524 31.032 15.603 31.1198 15.6552 31.2103C15.7636 31.3976 15.8727 31.5846 15.9823 31.7712C16.154 32.0634 16.3237 32.3567 16.4929 32.6504C17.001 33.5299 17.5159 34.4049 18.0426 35.2735C18.1613 35.4716 18.1613 35.4716 18.2825 35.6737C18.4263 35.9127 18.5722 36.1504 18.7206 36.3866C19.2401 37.2515 19.2528 37.6505 19.375 38.75C21.9531 38.75 24.5312 38.75 27.1875 38.75C28.3987 36.384 28.3987 36.384 28.5595 33.9893C28.5569 33.6877 28.5569 33.6877 28.5542 33.3799C28.5495 32.8547 28.5373 32.3299 28.5233 31.8049C28.5103 31.2654 28.5048 30.7258 28.4985 30.1862C28.4848 29.1343 28.464 28.0829 28.4375 27.0313C28.2312 26.9281 28.025 26.825 27.8125 26.7188C27.3784 27.0712 27.2031 27.2574 27.1022 27.8163C27.0989 27.9964 27.0956 28.1764 27.0923 28.3618C27.0872 28.5572 27.0822 28.7526 27.077 28.9539C27.0748 29.1573 27.0726 29.3607 27.0703 29.5703C27.0633 29.8791 27.0633 29.8791 27.0562 30.1941C27.0452 30.7023 27.037 31.2105 27.0312 31.7188C26.748 31.8262 26.748 31.8262 26.4062 31.875C26.1378 31.7323 26.1378 31.7323 25.9375 31.4063C25.8857 30.959 25.8611 30.5438 25.8575 30.0958C25.8533 29.9044 25.8533 29.9044 25.849 29.709C25.8405 29.3015 25.8353 28.8939 25.83 28.4864C25.8249 28.21 25.8195 27.9336 25.8139 27.6572C25.8006 26.9798 25.7902 26.3025 25.7812 25.625C25.575 25.5219 25.3687 25.4188 25.1562 25.3125C25.0015 25.4156 24.8468 25.5188 24.6875 25.625C24.6127 26.0895 24.6127 26.0895 24.6185 26.6358C24.6144 26.8378 24.6102 27.0398 24.606 27.2479C24.6037 27.4622 24.6015 27.6764 24.5996 27.8906C24.5947 28.309 24.5876 28.7272 24.5794 29.1455C24.5775 29.3317 24.5756 29.5179 24.5736 29.7098C24.5312 30.1563 24.5312 30.1563 24.2187 30.4688C23.8086 30.4102 23.8086 30.4102 23.4375 30.3125C23.4328 30.0464 23.4328 30.0464 23.4281 29.7749C23.4162 29.1171 23.4023 28.4593 23.3879 27.8015C23.3819 27.5167 23.3764 27.2319 23.3715 26.9472C23.3644 26.5379 23.3554 26.1288 23.3459 25.7196C23.3441 25.5922 23.3423 25.4647 23.3404 25.3334C23.3247 24.7291 23.3113 24.4201 22.9687 23.9063C22.4545 23.9655 22.4545 23.9655 22.0312 24.2188C22.0083 24.552 21.9957 24.8859 21.9873 25.2197C21.9814 25.423 21.9756 25.6262 21.9696 25.8356C21.964 26.0519 21.9585 26.2681 21.9531 26.4844C21.9426 26.906 21.931 27.3275 21.9189 27.749C21.9142 27.9371 21.9094 28.1251 21.9046 28.3188C21.875 28.75 21.875 28.75 21.7187 28.9063C21.3281 28.9258 21.3281 28.9258 20.9375 28.9063C20.6818 28.6506 20.7578 28.3584 20.7541 28.0057C20.752 27.8472 20.7499 27.6887 20.7477 27.5254C20.7461 27.3529 20.7444 27.1803 20.7428 27.0026C20.7376 26.6414 20.7324 26.2801 20.7272 25.9189C20.7198 25.3462 20.7128 24.7736 20.7067 24.2009C20.7005 23.6504 20.6925 23.0999 20.6842 22.5495C20.6829 22.3773 20.6815 22.2051 20.6802 22.0276C20.6763 21.7891 20.6763 21.7891 20.6723 21.5458C20.6707 21.4054 20.6691 21.265 20.6674 21.1203C20.6561 20.7485 20.6561 20.7485 20.3125 20.4688C20.1062 20.4688 19.9 20.4688 19.6875 20.4688Z" fill="white"/>
<path id="Vector_2" d="M24.7654 9.80469C25.156 9.84375 25.156 9.84375 25.4685 10.1562C25.4912 10.5595 25.4977 10.9452 25.488 11.3477C25.4866 11.458 25.4852 11.5684 25.4838 11.6821C25.4801 11.9548 25.4745 12.2274 25.4685 12.5C25.7682 12.4903 25.7682 12.4903 26.074 12.4805C26.4146 12.4695 26.4146 12.4695 26.7185 12.5C27.1321 12.9136 27.0712 13.11 27.0725 13.6865C27.0731 13.9473 27.0731 13.9473 27.0737 14.2133C27.0725 14.3955 27.0713 14.5778 27.0701 14.7656C27.0713 14.9479 27.0725 15.1302 27.0737 15.318C27.0733 15.4918 27.0729 15.6656 27.0725 15.8447C27.0722 16.0048 27.0718 16.1648 27.0714 16.3297C27.031 16.7188 27.031 16.7188 26.7185 17.0312C26.2984 17.0734 25.8917 17.0449 25.4685 17.0312C25.471 17.185 25.4734 17.3387 25.4759 17.4971C25.4844 18.0676 25.4898 18.638 25.4943 19.2085C25.4966 19.4554 25.4998 19.7023 25.5039 19.9492C25.5096 20.304 25.5122 20.6589 25.5143 21.0138C25.5167 21.1242 25.5191 21.2345 25.5216 21.3482C25.5218 21.8055 25.5188 22.1137 25.2569 22.4977C24.9998 22.6562 24.9998 22.6562 24.5896 22.6172C24.2185 22.5 24.2185 22.5 24.0623 22.3438C24.0484 21.9499 24.0442 21.5603 24.047 21.1664C24.0472 21.0487 24.0474 20.931 24.0477 20.8097C24.0485 20.4324 24.0505 20.0551 24.0525 19.6777C24.0533 19.4225 24.054 19.1673 24.0546 18.912C24.0564 18.2851 24.0591 17.6582 24.0623 17.0312C23.5982 17.0312 23.1341 17.0312 22.656 17.0312C22.3646 16.4485 22.3037 16.2615 22.302 15.6494C22.3016 15.5062 22.3012 15.363 22.3008 15.2155C22.302 15.067 22.3032 14.9186 22.3044 14.7656C22.3032 14.6172 22.302 14.4687 22.3008 14.3158C22.3012 14.1726 22.3016 14.0294 22.302 13.8818C22.3024 13.7516 22.3027 13.6214 22.3031 13.4872C22.3435 13.125 22.3435 13.125 22.656 12.5C23.1201 12.5 23.5841 12.5 24.0623 12.5C24.0586 12.3344 24.055 12.1689 24.0513 11.9983C24.0483 11.7814 24.0455 11.5645 24.0427 11.3477C24.0401 11.2385 24.0375 11.1293 24.0348 11.0168C24.032 10.7298 24.0462 10.4428 24.0623 10.1562C24.3748 9.84375 24.3748 9.84375 24.7654 9.80469ZM23.906 13.9062C23.906 14.4734 23.906 15.0406 23.906 15.625C24.4732 15.625 25.0404 15.625 25.6248 15.625C25.6248 15.0578 25.6248 14.4906 25.6248 13.9062C25.0576 13.9062 24.4904 13.9062 23.906 13.9062Z" fill="white"/>
<path id="Vector_3" d="M15.2334 9.80469C15.6241 9.84375 15.6241 9.84375 15.9366 10.1562C15.9592 10.5595 15.9657 10.9452 15.9561 11.3477C15.9547 11.458 15.9533 11.5684 15.9518 11.6821C15.9481 11.9548 15.9425 12.2274 15.9366 12.5C16.4006 12.5 16.8647 12.5 17.3428 12.5C17.6342 13.0827 17.6951 13.2697 17.6968 13.8818C17.6974 14.0966 17.6974 14.0966 17.698 14.3158C17.6968 14.4642 17.6956 14.6127 17.6944 14.7656C17.6956 14.9141 17.6968 15.0625 17.698 15.2155C17.6976 15.3587 17.6972 15.5019 17.6968 15.6494C17.6965 15.7796 17.6961 15.9098 17.6957 16.044C17.6553 16.4062 17.6553 16.4062 17.3428 17.0312C16.8787 17.0312 16.4147 17.0312 15.9366 17.0312C15.939 17.1905 15.9415 17.3498 15.944 17.514C15.9525 18.1039 15.9579 18.6938 15.9623 19.2838C15.9647 19.5394 15.9679 19.7949 15.9719 20.0504C15.9776 20.4173 15.9803 20.7842 15.9823 21.1511C15.9847 21.2657 15.9872 21.3803 15.9897 21.4984C15.9898 21.8206 15.9898 21.8206 15.9366 22.3438C15.4678 22.6562 15.4678 22.6562 15.0576 22.6172C14.874 22.5592 14.874 22.5592 14.6866 22.5C14.4512 22.0294 14.5113 21.5449 14.515 21.0291C14.5153 20.915 14.5155 20.801 14.5157 20.6836C14.5166 20.319 14.5185 19.9544 14.5205 19.5898C14.5213 19.3429 14.522 19.0959 14.5227 18.8489C14.5244 18.243 14.5271 17.6371 14.5303 17.0312C14.3305 17.0377 14.1307 17.0441 13.9248 17.0508C13.5843 17.0618 13.5843 17.0618 13.2803 17.0312C12.8667 16.6177 12.9276 16.4213 12.9263 15.8447C12.9259 15.6709 12.9255 15.4971 12.9251 15.318C12.9269 15.0446 12.9269 15.0446 12.9287 14.7656C12.9275 14.5833 12.9263 14.4011 12.9251 14.2133C12.9255 14.0394 12.9259 13.8656 12.9263 13.6865C12.9267 13.5265 12.927 13.3665 12.9274 13.2016C12.9678 12.8125 12.9678 12.8125 13.2803 12.5C13.7004 12.4578 14.1071 12.4863 14.5303 12.5C14.5267 12.3344 14.5231 12.1689 14.5193 11.9983C14.5164 11.7814 14.5135 11.5645 14.5108 11.3477C14.5082 11.2385 14.5055 11.1293 14.5028 11.0168C14.5001 10.7298 14.5142 10.4428 14.5303 10.1562C14.8428 9.84375 14.8428 9.84375 15.2334 9.80469ZM14.3741 13.9062C14.3741 14.4734 14.3741 15.0406 14.3741 15.625C14.9928 15.625 15.6116 15.625 16.2491 15.625C16.2491 15.0578 16.2491 14.4906 16.2491 13.9062C15.6303 13.9062 15.0116 13.9062 14.3741 13.9062Z" fill="white"/>
</g>
<defs>
<clipPath id="clip0_1_303">
<rect width="40" height="40" fill="white"/>
</clipPath>
</defs>
</svg>
