<svg width="24" height="25" viewBox="0 0 24 25" fill="none" xmlns="http://www.w3.org/2000/svg">
<path d="M6.75005 3.4939V5.7439M17.25 3.4939V5.7439M2.99805 19.2439V7.9909C2.99805 7.39416 3.2351 6.82186 3.65706 6.39991C4.07901 5.97795 4.65131 5.7409 5.24805 5.7409H18.748C19.3448 5.7409 19.9171 5.97795 20.339 6.39991C20.761 6.82186 20.998 7.39416 20.998 7.9909V19.2419M20.998 19.2419C20.998 19.8386 20.761 20.4109 20.339 20.8329C19.9171 21.2548 19.3448 21.4919 18.748 21.4919H5.24805C4.65131 21.4919 4.07901 21.2548 3.65706 20.8329C3.2351 20.4109 2.99805 19.8386 2.99805 19.2419V11.7419C2.99805 11.1452 3.2351 10.5729 3.65706 10.1509C4.07901 9.72895 4.65131 9.4919 5.24805 9.4919H18.748C19.3448 9.4919 19.9171 9.72895 20.339 10.1509C20.761 10.5729 20.998 11.1452 20.998 11.7419V19.2419ZM14.248 13.2419H16.498M7.49805 15.4919H11.998M12 13.2419H12.005V13.2479H12V13.2419ZM11.999 17.7419H12.005V17.7479H11.999V17.7419ZM9.74905 17.7429H9.75405V17.7489H9.75005V17.7429H9.74905ZM7.49905 17.7429H7.50405V17.7479H7.49805V17.7429H7.49905ZM14.249 15.4959H14.254V15.5009H14.249V15.4959ZM14.249 17.7429H14.255V17.7489H14.249V17.7429ZM16.499 15.4949H16.505V15.4999H16.5L16.499 15.4949Z" stroke="white" stroke-width="1.5" stroke-linecap="round" stroke-linejoin="round"/>
</svg>
