<svg width="39" height="39" viewBox="0 0 39 39" fill="none" xmlns="http://www.w3.org/2000/svg">
<g id="Simplification" clip-path="url(#clip0_1_2227)">
<path id="Vector" d="M21.6328 8.22627C22.8443 8.83201 23.2225 9.8473 23.6537 11.0613C23.7656 11.4255 23.7656 11.4255 23.7656 11.7302C24.0673 11.7302 24.3689 11.7302 24.6797 11.7302C24.7056 11.6343 24.7315 11.5385 24.7582 11.4398C25.1254 10.1431 25.4609 8.97296 26.6602 8.22627C27.4847 7.97998 28.1751 8.05384 28.9721 8.35124C29.9043 8.9541 30.1063 9.95553 30.4164 10.956C30.5761 11.4386 30.5761 11.4386 30.9496 11.6427C31.0423 11.6716 31.135 11.7004 31.2305 11.7302C31.8434 11.2292 31.9871 10.508 32.2392 9.78423C32.4959 9.18342 32.7801 8.71108 33.3365 8.35124C34.1397 8.05152 34.8153 8.00216 35.6484 8.22627C36.4133 8.60147 36.8943 9.09387 37.1719 9.90205C37.5378 11.4366 36.6909 12.9168 36.0823 14.2851C35.9416 14.6551 35.846 14.9927 35.8008 15.3864C35.895 15.4744 35.9893 15.5624 36.0864 15.653C36.5675 16.1624 36.5799 16.682 36.5625 17.3669C36.4633 17.723 36.3621 18.0786 36.2578 18.4333C36.3586 18.6368 36.4602 18.8399 36.5625 19.0427C36.5405 19.2375 36.5185 19.4323 36.4958 19.633C36.4707 20.4869 36.9265 21.0453 37.3901 21.7168C39.0685 24.1782 39.3946 27.3236 38.906 30.2203C38.2091 33.134 36.385 35.7212 33.8642 37.339C31.0779 39.0404 27.8516 39.5311 24.6606 38.7617C23.539 38.4098 22.5088 37.888 21.4805 37.3239C21.4805 37.8769 21.4805 38.4299 21.4805 38.9997C14.3919 38.9997 7.30336 38.9997 0 38.9997C0 33.5702 0 28.1406 0 22.5466C3.77051 22.5466 7.54102 22.5466 11.4258 22.5466C11.4258 23.8034 11.4258 25.0603 11.4258 26.3552C13.0345 26.3049 14.6433 26.2546 16.3008 26.2028C16.3762 25.8509 16.4516 25.499 16.5293 25.1364C16.7543 24.1809 17.077 23.3178 17.5195 22.4418C17.5701 22.3416 17.6207 22.2413 17.6728 22.1381C17.9069 21.6923 18.1499 21.3023 18.4705 20.9131C18.8003 20.4858 18.77 20.2055 18.7383 19.6794C18.7383 19.3069 18.813 19.0018 18.9097 18.6428C19.0676 18.0099 18.9485 17.6799 18.7383 17.0622C18.8066 16.2283 19.0545 15.8121 19.6523 15.2341C19.6062 15.1251 19.56 15.0161 19.5125 14.9038C19.303 14.4054 19.0968 13.9057 18.8906 13.406C18.818 13.2345 18.7453 13.0631 18.6704 12.8864C18.1916 11.7167 17.9267 10.8965 18.2908 9.6545C19.089 8.26404 20.1032 7.92083 21.6328 8.22627ZM19.9094 9.85445C19.6199 10.2512 19.5546 10.4839 19.5 10.9685C19.5797 11.3244 19.5797 11.3244 19.7357 11.6719C19.7891 11.8021 19.8425 11.9323 19.8975 12.0664C19.9549 12.2005 20.0122 12.3347 20.0713 12.4729C20.1263 12.6058 20.1813 12.7388 20.2379 12.8757C20.5442 13.6138 20.861 14.3473 21.1758 15.0817C25.449 15.0817 29.7223 15.0817 34.125 15.0817C35.6511 12.022 35.6511 12.022 35.8008 10.3591C35.6024 9.88255 35.6024 9.88255 35.1914 9.59737C34.6582 9.47041 34.6582 9.47041 34.125 9.59737C33.48 10.2632 33.2532 11.0128 32.9586 11.8736C32.7038 12.4536 32.4091 12.8167 31.8398 13.1013C31.5423 13.1376 31.5423 13.1376 31.1924 13.1489C31.0785 13.1546 30.9646 13.1603 30.8472 13.1661C30.2848 13.0697 29.9878 12.8626 29.5547 12.4919C29.3361 12.0991 29.2021 11.6919 29.0691 11.2636C28.8091 10.3125 28.8091 10.3125 28.1836 9.59737C27.6569 9.48309 27.6569 9.48309 27.1172 9.59737C26.5777 10.1527 26.403 10.7977 26.146 11.5207C25.9193 12.1231 25.7813 12.4559 25.3271 12.9204C24.6798 13.1569 24.1413 13.221 23.4609 13.1013C22.636 12.6797 22.4137 11.9389 22.0898 11.1208C21.9834 10.8663 21.8756 10.6123 21.7661 10.3591C21.7186 10.246 21.6711 10.1329 21.6221 10.0163C21.4988 9.72207 21.4988 9.72207 21.1758 9.59737C20.6275 9.53777 20.3616 9.52448 19.9094 9.85445ZM20.2617 16.6052C20.3195 17.1065 20.3195 17.1065 20.5664 17.5192C21.0115 17.5338 21.4531 17.5384 21.8983 17.5365C22.038 17.5366 22.1777 17.5366 22.3216 17.5366C22.7857 17.5365 23.2498 17.5353 23.7139 17.5341C24.0347 17.5338 24.3555 17.5336 24.6764 17.5335C25.5227 17.5329 26.3689 17.5314 27.2152 17.5297C28.0781 17.5281 28.9409 17.5274 29.8037 17.5267C31.4981 17.525 33.1924 17.5224 34.8867 17.5192C34.9873 17.3181 35.0878 17.1171 35.1914 16.9099C35.0406 16.6836 35.0406 16.6836 34.8867 16.4528C34.4282 16.4084 34.0012 16.3937 33.5424 16.3985C33.4032 16.3982 33.2639 16.3979 33.1205 16.3976C32.6587 16.3971 32.1969 16.3999 31.7351 16.4028C31.4152 16.4033 31.0953 16.4036 30.7754 16.4037C30.1043 16.4044 29.4333 16.4066 28.7622 16.41C27.9005 16.4143 27.0388 16.416 26.1771 16.4166C25.5163 16.4173 24.8555 16.4188 24.1948 16.4206C23.877 16.4215 23.5592 16.4222 23.2414 16.4228C22.7978 16.4238 22.3543 16.4259 21.9107 16.4283C21.7122 16.4285 21.7122 16.4285 21.5097 16.4288C20.8652 16.4155 20.8652 16.4155 20.2617 16.6052ZM20.2617 19.195C20.3142 19.5717 20.3142 19.5717 20.4141 19.9567C20.9136 20.2065 21.4672 20.1329 22.0163 20.1336C22.1506 20.1344 22.2848 20.1351 22.4232 20.1359C22.8687 20.1382 23.3142 20.1392 23.7597 20.14C24.0686 20.1409 24.3775 20.1418 24.6864 20.1427C25.3347 20.1443 25.983 20.1452 26.6313 20.1457C27.4626 20.1465 28.2938 20.1502 29.1251 20.1545C29.7634 20.1574 30.4017 20.1581 31.04 20.1584C31.3465 20.1588 31.653 20.1601 31.9595 20.1621C32.3881 20.1647 32.8165 20.1644 33.2451 20.1634C33.4355 20.1655 33.4355 20.1655 33.6298 20.1676C34.1549 20.1638 34.5138 20.1499 34.9703 19.8772C35.0797 19.7657 35.0797 19.7657 35.1914 19.6521C34.992 19.1764 34.992 19.1764 34.582 18.8903C34.1475 18.8745 33.7167 18.868 33.2821 18.8682C33.1476 18.8677 33.013 18.8672 32.8744 18.8667C32.4282 18.8652 31.982 18.8649 31.5358 18.8647C31.2265 18.8643 30.9172 18.8637 30.6079 18.8632C29.959 18.8623 29.31 18.862 28.6611 18.8621C27.8285 18.8621 26.9958 18.86 26.1631 18.8574C25.5242 18.8557 24.8853 18.8554 24.2463 18.8555C23.9393 18.8553 23.6322 18.8546 23.3252 18.8535C22.8962 18.852 22.4673 18.8524 22.0384 18.8533C21.9109 18.8525 21.7834 18.8516 21.652 18.8507C21.0584 18.854 20.7671 18.8581 20.2617 19.195ZM19.2242 22.0692C19.0248 22.4653 19.0248 22.4653 18.8906 22.8513C18.8048 23.0129 18.719 23.1745 18.6306 23.341C18.575 23.4779 18.5194 23.6148 18.4622 23.7558C18.4046 23.8923 18.3471 24.0288 18.2878 24.1694C18.0663 24.8805 17.9575 25.6224 17.8242 26.3552C19.0308 26.3552 20.2373 26.3552 21.4805 26.3552C21.4725 26.6265 21.4645 26.8978 21.4563 27.1773C21.4317 28.0766 21.4142 28.9758 21.4015 29.8753C21.3936 30.4204 21.3829 30.9652 21.3655 31.5101C21.3489 32.0366 21.3399 32.5628 21.3359 33.0895C21.3318 33.3869 21.3199 33.6842 21.3079 33.9814C21.2931 35.0096 21.2931 35.0096 21.811 35.8539C22.1984 36.1302 22.5764 36.3545 23.0039 36.5622C23.1801 36.648 23.3562 36.7338 23.5377 36.8223C24.0182 36.9959 24.4986 37.1657 24.9844 37.3239C25.0947 37.3616 25.2051 37.3993 25.3188 37.4382C27.657 38.0984 30.2743 37.6037 32.4016 36.5527C34.8951 35.116 36.6296 32.8287 37.448 30.0781C38.1129 27.1526 37.3967 24.5992 35.9713 22.0431C35.7169 21.6579 35.5186 21.3639 35.0502 21.2673C34.9385 21.2658 34.8269 21.2642 34.7118 21.2626C34.5833 21.2598 34.4547 21.257 34.3223 21.254C34.1817 21.2533 34.0412 21.2525 33.8963 21.2518C33.7479 21.2493 33.5995 21.2467 33.4465 21.2442C32.9546 21.2367 32.4627 21.2328 31.9708 21.2296C31.8028 21.2282 31.6348 21.2267 31.4617 21.2252C30.5724 21.2174 29.6832 21.2124 28.7939 21.2097C27.8756 21.2063 26.9577 21.1938 26.0395 21.179C25.3332 21.1694 24.627 21.1665 23.9207 21.1655C23.5822 21.1638 23.2438 21.1596 22.9054 21.1528C20.8278 20.9985 20.8278 20.9985 19.2242 22.0692ZM1.37109 23.9177C1.37109 24.7221 1.37109 25.5264 1.37109 26.3552C4.23668 26.3552 7.10227 26.3552 10.0547 26.3552C10.0547 25.5508 10.0547 24.7464 10.0547 23.9177C9.6525 23.9177 9.25031 23.9177 8.83594 23.9177C8.83594 24.3701 8.83594 24.8226 8.83594 25.2888C8.38348 25.2888 7.93102 25.2888 7.46484 25.2888C7.46484 24.8363 7.46484 24.3839 7.46484 23.9177C7.11293 23.9177 6.76102 23.9177 6.39844 23.9177C6.39844 24.3701 6.39844 24.8226 6.39844 25.2888C5.94598 25.2888 5.49352 25.2888 5.02734 25.2888C5.02734 24.8363 5.02734 24.3839 5.02734 23.9177C4.62516 23.9177 4.22297 23.9177 3.80859 23.9177C3.80859 24.3701 3.80859 24.8226 3.80859 25.2888C3.35613 25.2888 2.90367 25.2888 2.4375 25.2888C2.4375 24.8363 2.4375 24.3839 2.4375 23.9177C2.08559 23.9177 1.73367 23.9177 1.37109 23.9177ZM1.37109 27.7263C1.37109 28.5306 1.37109 29.335 1.37109 30.1638C4.23668 30.1638 7.10227 30.1638 10.0547 30.1638C10.0547 29.3594 10.0547 28.555 10.0547 27.7263C9.6525 27.7263 9.25031 27.7263 8.83594 27.7263C8.83594 28.1285 8.83594 28.5306 8.83594 28.945C8.38348 28.945 7.93102 28.945 7.46484 28.945C7.46484 28.5428 7.46484 28.1406 7.46484 27.7263C7.11293 27.7263 6.76102 27.7263 6.39844 27.7263C6.39844 28.1285 6.39844 28.5306 6.39844 28.945C5.94598 28.945 5.49352 28.945 5.02734 28.945C5.02734 28.5428 5.02734 28.1406 5.02734 27.7263C4.62516 27.7263 4.22297 27.7263 3.80859 27.7263C3.80859 28.1285 3.80859 28.5306 3.80859 28.945C3.35613 28.945 2.90367 28.945 2.4375 28.945C2.4375 28.5428 2.4375 28.1406 2.4375 27.7263C2.08559 27.7263 1.73367 27.7263 1.37109 27.7263ZM11.4258 27.7263C11.4258 28.5306 11.4258 29.335 11.4258 30.1638C14.2914 30.1638 17.157 30.1638 20.1094 30.1638C20.1094 29.3594 20.1094 28.555 20.1094 27.7263C19.7072 27.7263 19.305 27.7263 18.8906 27.7263C18.8906 28.1285 18.8906 28.5306 18.8906 28.945C18.4382 28.945 17.9857 28.945 17.5195 28.945C17.5195 28.5428 17.5195 28.1406 17.5195 27.7263C17.1676 27.7263 16.8157 27.7263 16.4531 27.7263C16.4531 28.1285 16.4531 28.5306 16.4531 28.945C16.0007 28.945 15.5482 28.945 15.082 28.945C15.082 28.5428 15.082 28.1406 15.082 27.7263C14.6798 27.7263 14.2777 27.7263 13.8633 27.7263C13.8633 28.1285 13.8633 28.5306 13.8633 28.945C13.4108 28.945 12.9584 28.945 12.4922 28.945C12.4922 28.5428 12.4922 28.1406 12.4922 27.7263C12.1403 27.7263 11.7884 27.7263 11.4258 27.7263ZM1.37109 31.5349C1.37109 32.289 1.37109 33.0431 1.37109 33.82C4.23668 33.82 7.10227 33.82 10.0547 33.82C10.0547 33.0659 10.0547 32.3118 10.0547 31.5349C9.6525 31.5349 9.25031 31.5349 8.83594 31.5349C8.83594 31.9371 8.83594 32.3392 8.83594 32.7536C8.38348 32.7536 7.93102 32.7536 7.46484 32.7536C7.46484 32.3514 7.46484 31.9492 7.46484 31.5349C7.11293 31.5349 6.76102 31.5349 6.39844 31.5349C6.39844 31.9371 6.39844 32.3392 6.39844 32.7536C5.94598 32.7536 5.49352 32.7536 5.02734 32.7536C5.02734 32.3514 5.02734 31.9492 5.02734 31.5349C4.62516 31.5349 4.22297 31.5349 3.80859 31.5349C3.80859 31.9371 3.80859 32.3392 3.80859 32.7536C3.35613 32.7536 2.90367 32.7536 2.4375 32.7536C2.4375 32.3514 2.4375 31.9492 2.4375 31.5349C2.08559 31.5349 1.73367 31.5349 1.37109 31.5349ZM11.4258 31.5349C11.4258 32.289 11.4258 33.0431 11.4258 33.82C14.2914 33.82 17.157 33.82 20.1094 33.82C20.1094 33.0659 20.1094 32.3118 20.1094 31.5349C19.7072 31.5349 19.305 31.5349 18.8906 31.5349C18.8906 31.9371 18.8906 32.3392 18.8906 32.7536C18.4382 32.7536 17.9857 32.7536 17.5195 32.7536C17.5195 32.3514 17.5195 31.9492 17.5195 31.5349C17.1676 31.5349 16.8157 31.5349 16.4531 31.5349C16.4531 31.9371 16.4531 32.3392 16.4531 32.7536C16.0007 32.7536 15.5482 32.7536 15.082 32.7536C15.082 32.3514 15.082 31.9492 15.082 31.5349C14.6798 31.5349 14.2777 31.5349 13.8633 31.5349C13.8633 31.9371 13.8633 32.3392 13.8633 32.7536C13.4108 32.7536 12.9584 32.7536 12.4922 32.7536C12.4922 32.3514 12.4922 31.9492 12.4922 31.5349C12.1403 31.5349 11.7884 31.5349 11.4258 31.5349ZM1.37109 35.3435C1.37109 36.0976 1.37109 36.8517 1.37109 37.6286C4.23668 37.6286 7.10227 37.6286 10.0547 37.6286C10.0547 36.8745 10.0547 36.1204 10.0547 35.3435C9.6525 35.3435 9.25031 35.3435 8.83594 35.3435C8.83594 35.7456 8.83594 36.1478 8.83594 36.5622C8.38348 36.5622 7.93102 36.5622 7.46484 36.5622C7.46484 36.16 7.46484 35.7578 7.46484 35.3435C7.11293 35.3435 6.76102 35.3435 6.39844 35.3435C6.39844 35.7456 6.39844 36.1478 6.39844 36.5622C5.94598 36.5622 5.49352 36.5622 5.02734 36.5622C5.02734 36.16 5.02734 35.7578 5.02734 35.3435C4.62516 35.3435 4.22297 35.3435 3.80859 35.3435C3.80859 35.7456 3.80859 36.1478 3.80859 36.5622C3.35613 36.5622 2.90367 36.5622 2.4375 36.5622C2.4375 36.16 2.4375 35.7578 2.4375 35.3435C2.08559 35.3435 1.73367 35.3435 1.37109 35.3435ZM11.4258 35.3435C11.4258 36.0976 11.4258 36.8517 11.4258 37.6286C14.2914 37.6286 17.157 37.6286 20.1094 37.6286C20.1094 36.8745 20.1094 36.1204 20.1094 35.3435C19.7072 35.3435 19.305 35.3435 18.8906 35.3435C18.8906 35.7456 18.8906 36.1478 18.8906 36.5622C18.4382 36.5622 17.9857 36.5622 17.5195 36.5622C17.5195 36.16 17.5195 35.7578 17.5195 35.3435C17.1676 35.3435 16.8157 35.3435 16.4531 35.3435C16.4531 35.7456 16.4531 36.1478 16.4531 36.5622C16.0007 36.5622 15.5482 36.5622 15.082 36.5622C15.082 36.16 15.082 35.7578 15.082 35.3435C14.6798 35.3435 14.2777 35.3435 13.8633 35.3435C13.8633 35.7456 13.8633 36.1478 13.8633 36.5622C13.4108 36.5622 12.9584 36.5622 12.4922 36.5622C12.4922 36.16 12.4922 35.7578 12.4922 35.3435C12.1403 35.3435 11.7884 35.3435 11.4258 35.3435Z" fill="white"/>
<path id="Vector_2" d="M26.9658 23.7656C27.4183 23.7656 27.8707 23.7656 28.3369 23.7656C28.3432 23.9793 28.3495 24.1929 28.3559 24.4131C28.3875 24.7915 28.3875 24.7915 28.4892 25.1367C28.9042 25.4853 28.9042 25.4853 29.4033 25.7461C30.0436 26.3864 30.263 26.8208 30.3174 27.7266C29.8146 27.7266 29.3119 27.7266 28.7939 27.7266C28.7531 27.6072 28.7122 27.4878 28.6702 27.3647C28.5124 26.922 28.5124 26.922 28.0322 26.6602C27.4881 26.6726 27.4881 26.6726 26.9658 26.8125C26.6044 27.2537 26.6044 27.2537 26.6992 27.8123C26.7656 28.3429 26.7656 28.3429 27.1182 28.6406C27.4081 28.7157 27.7006 28.7811 27.9941 28.8406C28.8312 29.0431 29.2943 29.2062 29.8603 29.8594C30.2975 30.5994 30.3893 31.2849 30.2513 32.1285C30.1132 32.6418 29.9068 32.9659 29.5557 33.3633C29.3709 33.4603 29.1834 33.5522 28.9939 33.6394C28.4685 33.9089 28.4685 33.9089 28.3869 34.3148C28.336 34.7397 28.336 34.7397 28.3369 35.3438C27.8844 35.3438 27.432 35.3438 26.9658 35.3438C26.9595 35.1301 26.9532 34.9164 26.9468 34.6963C26.916 34.3183 26.916 34.3183 26.8135 33.9727C26.3931 33.6162 26.3931 33.6162 25.8994 33.3633C25.2824 32.663 25.1175 32.3132 25.1377 31.3828C25.5901 31.3828 26.0426 31.3828 26.5088 31.3828C26.5779 31.5305 26.647 31.6782 26.7182 31.8303C26.9137 32.3077 26.9137 32.3077 27.2705 32.4492C27.8968 32.5045 27.8968 32.5045 28.4702 32.2874C28.7395 31.8236 28.6977 31.4494 28.6416 30.9258C28.2855 30.4241 27.8734 30.367 27.2895 30.2498C26.3639 30.0332 25.8748 29.7984 25.3186 29.012C25.0619 28.269 25.0333 27.5904 25.1377 26.8125C25.4684 26.1389 25.8851 25.7049 26.5088 25.2891C26.6596 25.2891 26.8104 25.2891 26.9658 25.2891C26.9658 24.7863 26.9658 24.2836 26.9658 23.7656Z" fill="white"/>
<path id="Vector_3" d="M6.70312 0.304688C7.14294 0.355737 7.2984 0.442135 7.60767 0.76886C7.7632 0.972703 7.7632 0.972703 7.92188 1.18066C8.45471 1.85722 9.0076 2.49599 9.59766 3.12305C10.4013 3.98043 11.152 4.86817 11.8828 5.78906C11.5058 6.24152 11.5058 6.24152 11.1211 6.70312C10.4763 6.62935 10.2138 6.28129 9.79761 5.80811C9.66446 5.65748 9.53132 5.50686 9.39413 5.35167C8.89331 4.76907 8.4123 4.17068 7.93794 3.56639C7.60688 3.18742 7.2569 2.89179 6.85547 2.58984C5.78526 3.72291 4.73612 4.85783 3.76396 6.07709C3.50391 6.39844 3.50391 6.39844 3.19922 6.70312C2.62198 6.66464 2.35495 6.35601 1.98047 5.94141C2.2239 5.35299 2.62359 4.93866 3.0564 4.48462C3.73505 3.75964 4.37168 3.01202 4.99461 2.23814C5.5416 1.57347 6.12126 0.938821 6.70312 0.304688Z" fill="white"/>
<path id="Vector_4" d="M7.46484 6.85547C7.9173 6.85547 8.36977 6.85547 8.83594 6.85547C8.83594 10.2238 8.83594 13.5921 8.83594 17.0625C8.38348 17.0625 7.93102 17.0625 7.46484 17.0625C7.46484 13.6942 7.46484 10.3259 7.46484 6.85547Z" fill="white"/>
<path id="Vector_5" d="M35.1926 27.5742C35.645 27.5742 36.0975 27.5742 36.5637 27.5742C36.6904 29.7289 35.8935 31.8397 34.5594 33.5216C33.973 34.1453 33.3248 34.73 32.6027 35.1914C32.1457 35.0391 32.1457 35.0391 31.8696 34.6868C31.6887 34.2773 31.6887 34.2773 31.7892 33.9816C32.03 33.6117 32.2963 33.3911 32.6408 33.1157C34.2806 31.6918 34.8855 29.663 35.1926 27.5742Z" fill="white"/>
<path id="Vector_6" d="M12.4922 16.3008C12.9446 16.3008 13.3971 16.3008 13.8633 16.3008C13.8633 16.703 13.8633 17.1052 13.8633 17.5195C14.3157 17.5195 14.7682 17.5195 15.2344 17.5195C15.2344 17.972 15.2344 18.4245 15.2344 18.8906C14.7819 18.8906 14.3295 18.8906 13.8633 18.8906C13.8633 19.3431 13.8633 19.7955 13.8633 20.2617C13.4108 20.2617 12.9584 20.2617 12.4922 20.2617C12.4922 19.8093 12.4922 19.3568 12.4922 18.8906C12.09 18.8906 11.6878 18.8906 11.2734 18.8906C11.2734 18.4382 11.2734 17.9857 11.2734 17.5195C11.6756 17.5195 12.0778 17.5195 12.4922 17.5195C12.4922 17.1173 12.4922 16.7152 12.4922 16.3008ZM12.6445 17.6719C12.6445 18.0238 12.6445 18.3757 12.6445 18.7383C12.9964 18.7383 13.3484 18.7383 13.7109 18.7383C13.7109 18.3864 13.7109 18.0345 13.7109 17.6719C13.359 17.6719 13.0071 17.6719 12.6445 17.6719Z" fill="white"/>
<path id="Vector_7" d="M31.9922 1.82812C32.4446 1.82812 32.8971 1.82812 33.3633 1.82812C33.3633 2.23031 33.3633 2.6325 33.3633 3.04688C33.8157 3.04688 34.2682 3.04688 34.7344 3.04688C34.7344 3.49934 34.7344 3.9518 34.7344 4.41797C34.2819 4.41797 33.8295 4.41797 33.3633 4.41797C33.3633 4.87043 33.3633 5.32289 33.3633 5.78906C32.9108 5.78906 32.4584 5.78906 31.9922 5.78906C31.9922 5.3366 31.9922 4.88414 31.9922 4.41797C31.59 4.41797 31.1878 4.41797 30.7734 4.41797C30.7734 3.96551 30.7734 3.51305 30.7734 3.04688C31.1756 3.04688 31.5778 3.04688 31.9922 3.04688C31.9922 2.64469 31.9922 2.2425 31.9922 1.82812ZM32.1445 3.19922C32.1445 3.55113 32.1445 3.90305 32.1445 4.26562C32.4964 4.26562 32.8484 4.26562 33.2109 4.26562C33.2109 3.91371 33.2109 3.5618 33.2109 3.19922C32.859 3.19922 32.5071 3.19922 32.1445 3.19922Z" fill="white"/>
<path id="Vector_8" d="M5.02734 6.85547C5.4798 6.85547 5.93227 6.85547 6.39844 6.85547C6.39844 8.56477 6.39844 10.2741 6.39844 12.0352C5.94598 12.0352 5.49352 12.0352 5.02734 12.0352C5.02734 10.3259 5.02734 8.61656 5.02734 6.85547Z" fill="white"/>
<path id="Vector_9" d="M15.6914 4.57031C16.4806 4.95264 16.4806 4.95264 16.7578 5.33203C16.6977 5.88431 16.4579 6.13912 16.0627 6.5127C15.9651 6.60617 15.8675 6.69965 15.767 6.79596C15.6918 6.86587 15.6166 6.93578 15.5391 7.00781C14.7499 6.62549 14.7499 6.62549 14.4727 6.24609C14.5327 5.69381 14.7726 5.439 15.1677 5.06543C15.2653 4.97195 15.3629 4.87848 15.4635 4.78217C15.5387 4.71225 15.6139 4.64234 15.6914 4.57031Z" fill="white"/>
<path id="Vector_10" d="M19.6523 0.609375C20.0856 0.803586 20.435 0.982826 20.7188 1.37109C20.6537 1.86425 20.4825 2.13356 20.1379 2.48511C20.0615 2.56621 19.9852 2.64732 19.9064 2.73088C19.6523 2.89453 19.6523 2.89453 19.3387 2.86359C18.943 2.70117 18.7175 2.44711 18.4336 2.13281C18.6851 1.47889 19.1553 1.08478 19.6523 0.609375Z" fill="white"/>
<path id="Vector_11" d="M19.1953 4.57031C19.803 4.80403 20.3604 5.24439 20.7188 5.78906C20.6762 6.29831 20.5741 6.3917 20.176 6.74121C20.0535 6.82919 19.9309 6.91717 19.8047 7.00781C19.3522 6.55535 18.8998 6.10289 18.4336 5.63672C18.68 5.14392 18.8108 4.91983 19.1953 4.57031Z" fill="white"/>
<path id="Vector_12" d="M13.7109 3.04688C14.4148 3.04688 15.1186 3.04688 15.8438 3.04688C15.8438 3.49934 15.8438 3.9518 15.8438 4.41797C15.1399 4.41797 14.4361 4.41797 13.7109 4.41797C13.7109 3.96551 13.7109 3.51305 13.7109 3.04688Z" fill="white"/>
<path id="Vector_13" d="M15.2344 0.609375C15.8883 0.860882 16.2824 1.33111 16.7578 1.82812C16.5608 2.26754 16.3527 2.57037 15.9961 2.89453C15.3422 2.64302 14.9481 2.1728 14.4727 1.67578C14.6696 1.23636 14.8778 0.933533 15.2344 0.609375Z" fill="white"/>
<path id="Vector_14" d="M16.9102 5.63672C17.3626 5.63672 17.8151 5.63672 18.2812 5.63672C18.2812 6.29027 18.2812 6.94383 18.2812 7.61719C17.8288 7.61719 17.3763 7.61719 16.9102 7.61719C16.9102 6.96363 16.9102 6.31008 16.9102 5.63672Z" fill="white"/>
<path id="Vector_15" d="M19.5 3.04688C20.1536 3.04688 20.8071 3.04688 21.4805 3.04688C21.4805 3.49934 21.4805 3.9518 21.4805 4.41797C20.8269 4.41797 20.1734 4.41797 19.5 4.41797C19.5 3.96551 19.5 3.51305 19.5 3.04688Z" fill="white"/>
<path id="Vector_16" d="M16.9102 0C17.3626 0 17.8151 0 18.2812 0C18.2812 0.653555 18.2812 1.30711 18.2812 1.98047C17.8288 1.98047 17.3763 1.98047 16.9102 1.98047C16.9102 1.32691 16.9102 0.673359 16.9102 0Z" fill="white"/>
<path id="Vector_17" d="M7.46484 18.1289C7.9173 18.1289 8.36977 18.1289 8.83594 18.1289C8.83594 18.5814 8.83594 19.0338 8.83594 19.5C8.38348 19.5 7.93102 19.5 7.46484 19.5C7.46484 19.0475 7.46484 18.5951 7.46484 18.1289Z" fill="white"/>
<path id="Vector_18" d="M5.02734 18.1289C5.4798 18.1289 5.93227 18.1289 6.39844 18.1289C6.39844 18.5814 6.39844 19.0338 6.39844 19.5C5.94598 19.5 5.49352 19.5 5.02734 19.5C5.02734 19.0475 5.02734 18.5951 5.02734 18.1289Z" fill="white"/>
<path id="Vector_19" d="M5.02734 15.6914C5.4798 15.6914 5.93227 15.6914 6.39844 15.6914C6.39844 16.1439 6.39844 16.5963 6.39844 17.0625C5.94598 17.0625 5.49352 17.0625 5.02734 17.0625C5.02734 16.61 5.02734 16.1576 5.02734 15.6914Z" fill="white"/>
<path id="Vector_20" d="M5.02734 13.1016C5.4798 13.1016 5.93227 13.1016 6.39844 13.1016C6.39844 13.554 6.39844 14.0065 6.39844 14.4727C5.94598 14.4727 5.49352 14.4727 5.02734 14.4727C5.02734 14.0202 5.02734 13.5677 5.02734 13.1016Z" fill="white"/>
</g>
<defs>
<clipPath id="clip0_1_2227">
<rect width="39" height="39" fill="white"/>
</clipPath>
</defs>
</svg>
