<svg width="24" height="25" viewBox="0 0 24 25" fill="none" xmlns="http://www.w3.org/2000/svg">
<g id="Frame">
<path id="Vector" d="M21 12.5C21 11.9033 20.7629 11.331 20.341 10.909C19.919 10.4871 19.3467 10.25 18.75 10.25H15C15 11.0456 14.6839 11.8087 14.1213 12.3713C13.5587 12.9339 12.7956 13.25 12 13.25C11.2044 13.25 10.4413 12.9339 9.87868 12.3713C9.31607 11.8087 9 11.0456 9 10.25H5.25C4.65326 10.25 4.08097 10.4871 3.65901 10.909C3.23705 11.331 3 11.9033 3 12.5M21 12.5V18.5C21 19.0967 20.7629 19.669 20.341 20.091C19.919 20.5129 19.3467 20.75 18.75 20.75H5.25C4.65326 20.75 4.08097 20.5129 3.65901 20.091C3.23705 19.669 3 19.0967 3 18.5V12.5M21 12.5V9.5M3 12.5V9.5M21 9.5C21 8.90326 20.7629 8.33097 20.341 7.90901C19.919 7.48705 19.3467 7.25 18.75 7.25H5.25C4.65326 7.25 4.08097 7.48705 3.65901 7.90901C3.23705 8.33097 3 8.90326 3 9.5M21 9.5V6.5C21 5.90326 20.7629 5.33097 20.341 4.90901C19.919 4.48705 19.3467 4.25 18.75 4.25H5.25C4.65326 4.25 4.08097 4.48705 3.65901 4.90901C3.23705 5.33097 3 5.90326 3 6.5V9.5" stroke="white" stroke-width="1.5" stroke-linecap="round" stroke-linejoin="round"/>
</g>
</svg>
