<svg width="39" height="39" viewBox="0 0 39 39" fill="none" xmlns="http://www.w3.org/2000/svg">
<g id="Simplification" clip-path="url(#clip0_1_2136)">
<path id="Vector" d="M16.9102 0.761719C18.6195 0.761719 20.3288 0.761719 22.0898 0.761719C22.3915 2.64697 22.3915 2.64697 22.6992 4.57031C23.048 4.67086 23.3968 4.77141 23.7561 4.875C25.1527 5.29528 26.4187 5.90774 27.7266 6.55078C28.6818 5.84695 29.637 5.14313 30.6211 4.41797C31.1578 4.6863 31.4232 4.87636 31.8351 5.2868C31.9472 5.39854 32.0593 5.51029 32.1749 5.62541C32.2905 5.74226 32.4062 5.85911 32.5254 5.97949C32.6411 6.09398 32.7567 6.20847 32.8759 6.32643C33.4726 6.92525 33.9949 7.50043 34.4297 8.22656C34.3635 8.31026 34.2973 8.39395 34.2291 8.48018C33.9312 8.86001 33.6377 9.24301 33.3442 9.62622C33.24 9.75789 33.1357 9.88957 33.0282 10.0252C32.931 10.1534 32.8338 10.2815 32.7337 10.4135C32.6427 10.5308 32.5518 10.6481 32.4581 10.7689C32.2512 11.1207 32.2512 11.1207 32.4065 11.5136C32.4709 11.6355 32.5352 11.7573 32.6016 11.8828C32.6831 12.0546 32.7646 12.2265 32.8485 12.4035C32.8934 12.4964 32.9382 12.5893 32.9845 12.6851C34.1642 15.1381 34.1642 15.1381 34.125 16.4531C34.3433 16.4643 34.3433 16.4643 34.566 16.4757C34.7629 16.4871 34.9599 16.4985 35.1628 16.5103C35.3555 16.5209 35.5481 16.5315 35.7466 16.5424C36.5324 16.6171 37.3093 16.769 38.0859 16.9102C38.0859 18.3681 38.0859 19.826 38.0859 21.3281C35.2204 21.3281 32.3548 21.3281 29.4023 21.3281C29.4023 20.3729 29.4023 19.4177 29.4023 18.4336C28.9369 15.618 27.7855 13.0903 25.417 11.3835C23.0456 9.76285 20.5053 9.13468 17.6528 9.59766C15.196 10.1248 12.9211 11.5294 11.4258 13.5586C9.80742 16.0675 9.59766 18.2462 9.59766 21.3281C6.73207 21.3281 3.86648 21.3281 0.914062 21.3281C0.914062 19.8702 0.914062 18.4123 0.914062 16.9102C1.34453 16.8347 1.775 16.7593 2.21851 16.6816C2.35196 16.6578 2.48541 16.6339 2.62291 16.6093C3.33417 16.4879 4.00124 16.4299 4.72266 16.4531C4.74681 16.3424 4.77097 16.2316 4.79585 16.1175C5.19683 14.3895 5.88735 12.8425 6.70312 11.2734C6.60022 11.1301 6.49732 10.9867 6.3913 10.839C6.25402 10.6474 6.11675 10.4558 5.97949 10.2642C5.91194 10.1701 5.84438 10.076 5.77478 9.97911C5.36173 9.40205 4.96059 8.81927 4.57031 8.22656C4.8084 7.65283 5.16542 7.29172 5.60458 6.85785C5.67516 6.7877 5.74574 6.71755 5.81846 6.64528C6.04282 6.42262 6.26821 6.20105 6.49365 5.97949C6.64646 5.82821 6.7992 5.67686 6.95187 5.52544C7.32519 5.15547 7.69945 4.78647 8.07422 4.41797C8.51516 4.62233 8.87375 4.85574 9.24953 5.16302C9.3541 5.2459 9.45867 5.32877 9.56641 5.41415C9.78482 5.58856 10.0018 5.76473 10.2174 5.9426C10.5118 6.17322 10.7884 6.37989 11.1211 6.55078C11.5404 6.50574 11.5404 6.50574 11.8828 6.24609C12.011 6.17913 12.1393 6.11216 12.2714 6.04317C12.4102 5.96874 12.5491 5.89431 12.6921 5.81763C13.8009 5.25423 14.9573 4.91192 16.1484 4.57031C16.393 3.55718 16.5521 2.54797 16.687 1.51451C16.7578 1.06641 16.7578 1.06641 16.9102 0.761719Z" fill="white"/>
<path id="Vector_2" d="M14.3876 21.1186C14.5397 21.1169 14.6918 21.1151 14.8485 21.1133C16.1221 21.1183 17.182 21.3209 18.1296 22.2422C18.8943 23.2472 19.0912 24.1374 19.0948 25.3658C19.0958 25.4878 19.0969 25.6098 19.0979 25.7356C19.0994 25.9923 19.1002 26.249 19.1001 26.5057C19.1008 26.8976 19.1063 27.2892 19.1121 27.681C19.113 27.9313 19.1136 28.1815 19.1139 28.4317C19.1161 28.5482 19.1183 28.6647 19.1205 28.7848C19.1157 29.3532 19.064 29.6753 18.7536 30.1581C18.344 30.5566 18.2302 30.6191 17.6535 30.6306C17.509 30.6275 17.3644 30.6243 17.2155 30.6211C17.2181 30.756 17.2181 30.756 17.2207 30.8936C17.2375 31.8302 17.249 32.7667 17.2574 33.7035C17.2612 34.053 17.2664 34.4024 17.273 34.7519C17.2822 35.2545 17.2866 35.7569 17.2899 36.2596C17.2938 36.4156 17.2978 36.5716 17.3018 36.7324C17.3021 37.4396 17.2947 37.817 16.8896 38.4131C16.3808 38.7426 16.1035 38.7915 15.5011 38.7911C15.3207 38.7914 15.1403 38.7917 14.9545 38.792C14.7674 38.7884 14.5804 38.7847 14.3876 38.781C14.2 38.7827 14.0124 38.7843 13.819 38.786C12.4809 38.7751 12.4809 38.7751 11.9813 38.491C11.573 37.8298 11.6567 37.154 11.6716 36.3935C11.6729 36.1462 11.6729 36.1462 11.6743 35.894C11.6777 35.3677 11.6853 34.8416 11.6931 34.3154C11.6961 33.9586 11.6989 33.6017 11.7014 33.2448C11.7081 32.3702 11.7183 31.4957 11.7312 30.6211C11.5892 30.6254 11.4472 30.6297 11.3009 30.6342C10.7445 30.6191 10.4973 30.4924 10.0554 30.164C9.8029 29.6591 9.87161 29.0948 9.86673 28.5394C9.8655 28.4075 9.86427 28.2756 9.863 28.1396C9.86089 27.8597 9.85926 27.5797 9.85806 27.2998C9.85545 26.8744 9.84876 26.4493 9.84203 26.024C9.84048 25.7516 9.83919 25.4793 9.83816 25.2069C9.83549 25.0809 9.83283 24.9548 9.83008 24.825C9.83382 23.8097 10.1095 23.0249 10.7677 22.244C10.8911 22.1441 10.8911 22.1441 11.017 22.0422C11.0981 21.9737 11.1792 21.9051 11.2628 21.8345C12.309 21.1667 13.1662 21.1045 14.3876 21.1186ZM11.4509 23.1455C11.3957 23.2433 11.3405 23.3411 11.2836 23.4419C11.1967 23.5874 11.1967 23.5874 11.1081 23.7359C10.6769 24.776 10.7891 25.9661 10.7885 27.0696C10.7867 27.2578 10.7848 27.446 10.7829 27.64C10.7826 27.8199 10.7823 27.9999 10.782 28.1854C10.7814 28.3495 10.7807 28.5136 10.7801 28.6827C10.7867 29.1311 10.7867 29.1311 11.1218 29.5547C11.348 29.4793 11.348 29.4793 11.5788 29.4023C11.7831 28.9937 11.7638 28.6583 11.7794 28.2014C11.7857 28.0237 11.7921 27.846 11.7987 27.6629C11.8077 27.3833 11.8077 27.3833 11.8168 27.0981C11.8267 26.8168 11.8267 26.8168 11.8368 26.5298C11.853 26.0655 11.8685 25.6011 11.8835 25.1367C12.0846 25.1367 12.2857 25.1367 12.4929 25.1367C12.5431 26.3433 12.5934 27.5498 12.6452 28.793C13.8015 28.793 14.9578 28.793 16.1491 28.793C16.1994 27.6367 16.2497 26.4804 16.3015 25.289C16.9108 25.1367 16.9108 25.1367 17.2155 25.1367C17.2155 26.5444 17.2155 27.952 17.2155 29.4023C17.4166 29.4526 17.6177 29.5029 17.8249 29.5547C18.2299 29.1497 18.0263 27.8139 18.0306 27.2448C18.0331 27.0029 18.0372 26.761 18.0431 26.5192C18.1253 24.7676 18.1253 24.7676 17.4192 23.2134C16.6274 22.399 16.0332 22.2181 14.933 22.199C14.7971 22.1976 14.6611 22.1961 14.5209 22.1946C14.3879 22.1901 14.2548 22.1857 14.1178 22.1812C13.0632 22.1709 12.1991 22.3608 11.4509 23.1455ZM12.6452 30.0117C12.6417 31.0475 12.6387 32.0834 12.6368 33.1192C12.6361 33.4718 12.635 33.8244 12.6337 34.177C12.6319 34.6829 12.631 35.1889 12.6303 35.6948C12.6295 35.8532 12.6288 36.0116 12.628 36.1748C12.6279 36.3212 12.6279 36.4675 12.6279 36.6183C12.6276 36.7476 12.6272 36.8768 12.6269 37.01C12.6251 37.334 12.6251 37.334 12.7976 37.6289C13.1495 37.6289 13.5014 37.6289 13.864 37.6289C13.9142 35.618 13.9645 33.607 14.0163 31.5351C14.2677 31.4849 14.519 31.4346 14.778 31.3828C14.8283 33.444 14.8786 35.5052 14.9304 37.6289C15.3326 37.6289 15.7347 37.6289 16.1491 37.6289C16.1491 35.1152 16.1491 32.6015 16.1491 30.0117C14.9928 30.0117 13.8365 30.0117 12.6452 30.0117Z" fill="white"/>
<path id="Vector_3" d="M24.5473 21.1191C24.6989 21.1134 24.8505 21.1077 25.0067 21.1019C26.2341 21.0875 27.2602 21.36 28.1763 22.2145C29.012 23.1206 29.1466 23.955 29.1498 25.1521C29.1508 25.2848 29.1518 25.4175 29.1529 25.5543C29.1544 25.8341 29.1551 26.1138 29.1551 26.3936C29.1557 26.8216 29.1613 27.2494 29.167 27.6774C29.1679 27.9496 29.1685 28.2219 29.1688 28.4941C29.171 28.6219 29.1732 28.7496 29.1755 28.8813C29.1685 29.7681 29.1685 29.7681 28.8086 30.2404C28.2665 30.6288 27.9336 30.636 27.2705 30.6216C27.2718 30.7137 27.2732 30.8059 27.2746 30.9009C27.2881 31.8597 27.2973 32.8185 27.304 33.7774C27.307 34.1353 27.3112 34.4932 27.3165 34.8511C27.3238 35.3654 27.3273 35.8796 27.33 36.394C27.3331 36.5541 27.3363 36.7143 27.3395 36.8792C27.3399 37.9741 27.3399 37.9741 27.0204 38.4915C26.2852 38.9096 25.4376 38.7888 24.614 38.7815C24.3334 38.7869 24.3334 38.7869 24.0472 38.7925C23.8668 38.7922 23.6864 38.7919 23.5006 38.7916C23.2539 38.7918 23.2539 38.7918 23.0022 38.7919C22.36 38.6561 22.1561 38.4783 21.7861 37.9341C21.6837 37.3745 21.6974 36.8273 21.7117 36.2601C21.7128 36.0988 21.7139 35.9376 21.715 35.7715C21.7192 35.2576 21.7288 34.744 21.7385 34.2302C21.7423 33.8814 21.7458 33.5326 21.7489 33.1837C21.7573 32.3296 21.77 31.4756 21.7861 30.6216C21.6441 30.6275 21.5021 30.6334 21.3559 30.6394C20.7467 30.6169 20.5402 30.4298 20.1103 30.0122C19.8708 29.5332 19.9267 29.0192 19.9217 28.4929C19.9205 28.3715 19.9192 28.2501 19.918 28.125C19.9158 27.8672 19.9142 27.6094 19.913 27.3516C19.9104 26.961 19.9037 26.5706 19.897 26.1801C19.8825 24.6612 19.9093 23.4789 20.9292 22.2712C22.1595 21.2459 22.9962 21.1407 24.5473 21.1191ZM21.5862 23.2329C21.4739 23.3672 21.4739 23.3672 21.3594 23.5043C20.9472 24.0951 21.0046 24.7126 21.0095 25.4008C21.0097 25.5151 21.0099 25.6295 21.0102 25.7473C21.011 26.112 21.0129 26.4768 21.0149 26.8415C21.0156 27.089 21.0163 27.3365 21.0169 27.5839C21.0186 28.1902 21.0213 28.7965 21.0244 29.4028C21.3209 29.4928 21.3209 29.4928 21.6338 29.5552C21.8328 29.3905 21.8328 29.3905 21.8034 28.994C21.8026 28.816 21.8018 28.6381 21.801 28.4548C21.8005 28.2629 21.8 28.0709 21.7995 27.8731C21.7982 27.6689 21.7969 27.4647 21.7956 27.2605C21.7949 27.0557 21.7942 26.8509 21.7935 26.6461C21.7917 26.1431 21.7892 25.6401 21.7861 25.1372C22.0399 25.1307 22.294 25.131 22.5478 25.1372C22.8042 25.3936 22.7349 25.7192 22.7484 26.0709C22.7542 26.2128 22.76 26.3547 22.766 26.5009C22.7725 26.6824 22.7791 26.864 22.7859 27.051C22.8079 27.626 22.8299 28.201 22.8525 28.7934C24.0088 28.7934 25.1651 28.7934 26.3564 28.7934C26.4067 27.5869 26.457 26.3803 26.5088 25.1372C26.7099 25.1372 26.911 25.1372 27.1181 25.1372C27.1227 25.3136 27.1227 25.3136 27.1273 25.4935C27.1418 26.0255 27.1585 26.5573 27.1753 27.0891C27.18 27.2742 27.1847 27.4593 27.1895 27.65C27.1984 27.9158 27.1984 27.9158 27.2074 28.187C27.2122 28.3506 27.217 28.5141 27.2219 28.6826C27.2424 29.1311 27.2424 29.1311 27.5752 29.5552C27.726 29.5049 27.8768 29.4546 28.0322 29.4028C28.3657 28.7359 28.2127 27.831 28.2131 27.0986C28.2159 26.8217 28.2159 26.8217 28.2188 26.5392C28.221 25.1757 28.2044 23.9335 27.2705 22.852C26.3869 22.239 25.561 22.1516 24.5093 22.176C24.3771 22.1749 24.2449 22.1739 24.1088 22.1727C23.0579 22.1831 22.2751 22.3861 21.5862 23.2329ZM22.8525 30.0122C22.8525 32.5259 22.8525 35.0395 22.8525 37.6294C23.2547 37.6294 23.6569 37.6294 24.0713 37.6294C24.1215 35.5682 24.1718 33.507 24.2236 31.3833C24.475 31.4336 24.7263 31.4838 24.9853 31.5356C25.0356 33.5466 25.0859 35.5575 25.1377 37.6294C25.4896 37.6294 25.8415 37.6294 26.2041 37.6294C26.3882 37.2611 26.3748 37.0302 26.3737 36.6188C26.3737 36.4725 26.3737 36.3261 26.3737 36.1753C26.3729 36.0169 26.3721 35.8585 26.3713 35.6953C26.3711 35.5335 26.3709 35.3716 26.3706 35.2048C26.3698 34.6863 26.3679 34.1679 26.3659 33.6494C26.3652 33.2985 26.3645 32.9476 26.3639 32.5967C26.3623 31.7352 26.3593 30.8737 26.3564 30.0122C25.2001 30.0122 24.0438 30.0122 22.8525 30.0122Z" fill="white"/>
<path id="Vector_4" d="M33.8673 31.1715C34.0188 31.1678 34.1703 31.1641 34.3264 31.1602C35.5097 31.1556 36.4316 31.3732 37.37 32.1159C37.449 32.2096 37.5279 32.3033 37.6093 32.3998C37.6906 32.4915 37.7719 32.5832 37.8556 32.6777C38.5881 33.8864 38.6093 35.0905 38.59 36.475C38.5905 36.6552 38.5909 36.8354 38.5915 37.021C38.5831 38.3481 38.5831 38.3481 38.2377 38.6935C37.8378 38.6364 37.8378 38.6364 37.476 38.5412C37.4737 38.4268 37.4715 38.3124 37.4692 38.1945C37.4578 37.672 37.4431 37.1497 37.4283 36.6273C37.4232 36.3574 37.4232 36.3574 37.4179 36.0819C37.3806 34.8711 37.3101 34.0256 36.4952 33.0854C35.6643 32.376 34.9812 32.3917 33.9244 32.3903C33.7835 32.3866 33.6426 32.3828 33.4975 32.379C32.555 32.375 31.9964 32.4992 31.2299 33.0568C30.6277 33.8332 30.4518 34.4039 30.4199 35.3723C30.4136 35.5564 30.4072 35.7405 30.4006 35.9302C30.3946 36.1226 30.3886 36.3149 30.3824 36.5131C30.3726 36.8043 30.3726 36.8043 30.3625 37.1013C30.3463 37.5813 30.3308 38.0612 30.3158 38.5412C29.954 38.6364 29.954 38.6364 29.5541 38.6935C28.9865 38.1259 29.1931 37.1745 29.1923 36.4084C29.1885 36.2263 29.1848 36.0443 29.181 35.8567C29.1766 34.5195 29.327 33.4096 30.1861 32.3474C30.298 32.2547 30.4099 32.1621 30.5253 32.0666C30.6364 31.9707 30.7476 31.8749 30.8621 31.7762C31.8102 31.1502 32.7678 31.1729 33.8673 31.1715Z" fill="white"/>
<path id="Vector_5" d="M5.04625 31.174C5.19785 31.1684 5.34946 31.1627 5.50566 31.1568C6.73305 31.1424 7.7591 31.4149 8.6752 32.2694C9.43177 33.0897 9.63647 33.8111 9.62727 34.9285C9.62684 35.0322 9.62641 35.136 9.62597 35.2429C9.62427 35.5719 9.62045 35.9009 9.61656 36.23C9.61503 36.454 9.61364 36.6781 9.6124 36.9021C9.60905 37.4493 9.6038 37.9965 9.59752 38.5437C9.34521 38.6019 9.09104 38.6524 8.8358 38.696C8.58539 38.4456 8.65506 38.1502 8.64596 37.8052C8.64096 37.6531 8.63595 37.501 8.63079 37.3443C8.62159 37.0245 8.61285 36.7048 8.60461 36.385C8.55065 34.6094 8.55065 34.6094 7.76939 33.0593C6.88054 32.451 6.06293 32.3588 5.00816 32.3833C4.876 32.3822 4.74383 32.3811 4.60766 32.38C3.71013 32.3889 3.02772 32.5074 2.33917 33.1355C1.78052 33.8529 1.65759 34.3158 1.63815 35.2118C1.63314 35.3945 1.62814 35.5772 1.62298 35.7655C1.61364 36.1519 1.60491 36.5383 1.59679 36.9247C1.59159 37.1073 1.58638 37.2898 1.58102 37.4779C1.57721 37.6457 1.57339 37.8135 1.56946 37.9864C1.5233 38.3913 1.5233 38.3913 1.21861 38.696C0.818708 38.6389 0.818708 38.6389 0.456892 38.5437C0.441672 37.9396 0.430697 37.3356 0.423418 36.7314C0.418896 36.4265 0.411148 36.1216 0.403334 35.8167C0.389283 34.4221 0.514816 33.4076 1.42808 32.3261C2.65842 31.3009 3.49509 31.1956 5.04625 31.174Z" fill="white"/>
<path id="Vector_6" d="M16.0299 15.4907C16.7144 15.9947 17.0781 16.5865 17.2171 17.4247C17.265 18.3032 17.1031 19.1145 16.5078 19.7842C15.7024 20.4991 15.052 20.6209 13.9863 20.6096C13.1802 20.5285 12.7064 20.1751 12.1422 19.5956C11.6468 18.825 11.486 18.1274 11.5804 17.2152C11.915 16.2513 12.3984 15.6943 13.2942 15.1967C14.2714 14.9302 15.1435 14.9847 16.0299 15.4907ZM13.1038 16.6059C12.7487 17.1267 12.6468 17.4301 12.6468 18.0626C12.8275 18.6838 13.0677 18.9391 13.5609 19.348C14.0508 19.593 14.5529 19.5708 15.0843 19.5004C15.538 19.2637 15.7644 19.0781 15.9704 18.606C16.1201 18.1077 16.1717 17.7648 16.0555 17.2533C15.6332 16.5608 15.6332 16.5608 14.9189 16.2137C14.1848 16.1003 13.6798 16.0807 13.1038 16.6059Z" fill="white"/>
<path id="Vector_7" d="M35.043 25.24C35.8295 25.6566 36.4309 26.2687 36.7135 27.1164C36.7954 28.0318 36.7848 28.7704 36.2564 29.5539C35.7142 30.1657 35.287 30.5715 34.4634 30.6714C33.4431 30.6845 32.8078 30.6407 31.9908 30.0109C31.2285 29.1884 31.175 28.5104 31.1868 27.4234C31.2494 26.7431 31.4137 26.4342 31.8385 25.8976C32.7888 25.1606 33.8658 24.8446 35.043 25.24ZM32.4764 26.9069C32.1925 27.4747 32.1728 28.0196 32.2955 28.6398C32.6415 29.1005 32.6415 29.1005 33.0572 29.4015C33.1075 29.4518 33.1578 29.5021 33.2096 29.5539C33.8949 29.6549 34.5328 29.6701 35.1139 29.2587C35.5431 28.7328 35.6512 28.4248 35.6834 27.7591C35.6249 27.2146 35.3984 26.9067 35.0377 26.507C34.13 25.8413 33.234 26.2277 32.4764 26.9069Z" fill="white"/>
<path id="Vector_8" d="M26.2012 15.5373C26.8175 16.0715 27.2193 16.5099 27.3188 17.3303C27.3319 18.3507 27.288 18.9859 26.6582 19.803C25.8622 20.5408 25.2291 20.6099 24.1785 20.5974C23.4241 20.5379 22.9967 20.2313 22.4307 19.7553C21.8633 19.0776 21.7097 18.4144 21.735 17.5309C21.8519 16.7603 22.2125 16.1698 22.764 15.6325C23.9293 14.8935 24.9909 14.8751 26.2012 15.5373ZM23.1543 16.7561C22.796 17.2448 22.7783 17.6848 22.8497 18.2795C23.1604 18.8368 23.3835 19.1432 23.9161 19.4983C24.7233 19.5634 25.2466 19.5765 25.8965 19.0412C26.2482 18.5891 26.2762 18.0887 26.2572 17.5232C26.1513 16.9364 25.8871 16.6736 25.4395 16.299C24.5225 15.9838 23.886 16.0958 23.1543 16.7561Z" fill="white"/>
<path id="Vector_9" d="M6.57506 25.5495C7.15679 25.9559 7.54127 26.4361 7.76762 27.1152C7.87391 28.2094 7.82785 28.9706 7.15825 29.8574C6.36219 30.5952 5.72905 30.6643 4.67849 30.6518C3.92414 30.5923 3.49671 30.2857 2.93071 29.8097C2.3633 29.132 2.20965 28.4688 2.23504 27.5853C2.35193 26.8147 2.71252 26.2242 3.26396 25.6869C4.38172 24.9781 5.41769 24.9093 6.57506 25.5495ZM3.65434 26.8105C3.29596 27.2992 3.27829 27.7392 3.34965 28.3339C3.66042 28.8912 3.88349 29.1976 4.41606 29.5527C5.22332 29.6178 5.74662 29.6309 6.39653 29.0956C6.75321 28.637 6.76493 28.1388 6.75001 27.5668C6.67134 27.0842 6.44033 26.8349 6.09184 26.5058C5.21401 25.8913 4.42887 26.1768 3.65434 26.8105Z" fill="white"/>
<path id="Vector_10" d="M12.6445 28.793C13.8511 28.793 15.0577 28.793 16.3008 28.793C16.3008 29.1952 16.3008 29.5973 16.3008 30.0117C15.0942 30.0117 13.8877 30.0117 12.6445 30.0117C12.6445 29.6095 12.6445 29.2073 12.6445 28.793Z" fill="white"/>
<path id="Vector_11" d="M22.8516 28.793C24.0079 28.793 25.1641 28.793 26.3555 28.793C26.3555 29.1952 26.3555 29.5973 26.3555 30.0117C25.1992 30.0117 24.0429 30.0117 22.8516 30.0117C22.8516 29.6095 22.8516 29.2073 22.8516 28.793Z" fill="white"/>
<path id="Vector_12" d="M35.8005 35.0391C36.5174 35.1466 36.5174 35.1466 36.7146 35.3438C36.7527 35.8473 36.7428 36.3529 36.7431 36.8577C36.745 36.9997 36.7469 37.1418 36.7488 37.2882C36.7491 37.424 36.7494 37.5598 36.7497 37.6997C36.7503 37.8248 36.7509 37.9499 36.7516 38.0788C36.7146 38.3906 36.7146 38.3906 36.4099 38.6953C36.01 38.6382 36.01 38.6382 35.6482 38.543C35.6438 37.9876 35.641 37.4321 35.6386 36.8767C35.6374 36.7181 35.6361 36.5596 35.6348 36.3962C35.634 36.1701 35.634 36.1701 35.6333 35.9394C35.6325 35.7998 35.6317 35.6602 35.6309 35.5164C35.6482 35.1914 35.6482 35.1914 35.8005 35.0391Z" fill="white"/>
<path id="Vector_13" d="M2.59048 35.0391C2.84185 35.0893 3.09322 35.1396 3.3522 35.1914C3.3522 36.2974 3.3522 37.4034 3.3522 38.543C3.10084 38.5932 2.84947 38.6435 2.59048 38.6953C2.21726 38.3221 2.24675 38.2174 2.24533 37.7051C2.24494 37.57 2.24455 37.4349 2.24414 37.2957C2.24591 37.0836 2.24591 37.0836 2.24771 36.8672C2.24653 36.7258 2.24535 36.5844 2.24414 36.4387C2.24453 36.3036 2.24493 36.1685 2.24533 36.0293C2.24567 35.9052 2.24602 35.7811 2.24637 35.6532C2.2858 35.3438 2.2858 35.3438 2.59048 35.0391Z" fill="white"/>
<path id="Vector_14" d="M33.8203 33.5156C34.125 33.668 34.125 33.668 34.2881 34.056C34.3411 34.217 34.3941 34.378 34.4487 34.5439C34.5025 34.7034 34.5563 34.8629 34.6118 35.0272C34.7273 35.4692 34.783 35.8049 34.7344 36.2578C34.4297 36.6101 34.4297 36.6101 34.125 36.8672C33.7451 36.6838 33.4118 36.4933 33.0586 36.2578C33.1455 35.2798 33.4659 34.4273 33.8203 33.5156Z" fill="white"/>
<path id="Vector_15" d="M14.3203 23.4609C14.4209 23.4609 14.5214 23.4609 14.625 23.4609C14.7319 23.7744 14.8362 24.0888 14.9392 24.4036C14.9975 24.5785 15.0559 24.7535 15.116 24.9338C15.235 25.4443 15.2546 25.7131 15.082 26.2031C14.6917 26.5554 14.6917 26.5554 14.3203 26.8125C13.9204 26.5173 13.9204 26.5173 13.5586 26.0508C13.562 25.1656 13.9963 24.2711 14.3203 23.4609Z" fill="white"/>
<path id="Vector_16" d="M24.375 23.4609C24.4755 23.4609 24.5761 23.4609 24.6797 23.4609C24.8119 23.803 24.9416 24.1458 25.0701 24.4893C25.1077 24.5859 25.1453 24.6825 25.184 24.782C25.3327 25.184 25.4478 25.5149 25.4128 25.946C25.2178 26.3511 24.8859 26.5551 24.5273 26.8125C24.137 26.5078 24.137 26.5078 23.7656 26.0508C23.7656 25.1321 24.0598 24.3174 24.375 23.4609Z" fill="white"/>
<path id="Vector_17" d="M31.3835 35.0391C31.6348 35.0893 31.8862 35.1396 32.1452 35.1914C32.1452 36.2974 32.1452 37.4034 32.1452 38.543C31.8938 38.5932 31.6425 38.6435 31.3835 38.6953C31.1315 38.4433 31.2113 38.1464 31.2109 37.8003C31.2107 37.6503 31.2105 37.5002 31.2103 37.3456C31.2109 37.1878 31.2115 37.0299 31.2121 36.8672C31.2112 36.6304 31.2112 36.6304 31.2103 36.3887C31.2105 36.2387 31.2107 36.0887 31.2109 35.9341C31.2111 35.7954 31.2112 35.6568 31.2114 35.5139C31.2311 35.1914 31.2311 35.1914 31.3835 35.0391Z" fill="white"/>
<path id="Vector_18" d="M7.00847 35.0391C7.25984 35.0893 7.51121 35.1396 7.77019 35.1914C7.77019 36.2974 7.77019 37.4034 7.77019 38.543C7.51882 38.5932 7.26746 38.6435 7.00847 38.6953C6.7565 38.4433 6.83632 38.1464 6.8359 37.8003C6.8357 37.6503 6.8355 37.5002 6.8353 37.3456C6.83589 37.1878 6.83648 37.0299 6.83709 36.8672C6.8362 36.6304 6.8362 36.6304 6.8353 36.3887C6.8355 36.2387 6.83569 36.0887 6.8359 35.9341C6.83607 35.7954 6.83624 35.6568 6.83642 35.5139C6.85613 35.1914 6.85613 35.1914 7.00847 35.0391Z" fill="white"/>
<path id="Vector_19" d="M5.02734 33.5156C5.42063 33.9089 5.5061 34.2628 5.6748 34.7915C5.73215 34.9655 5.78949 35.1395 5.84857 35.3188C5.94141 35.8008 5.94141 35.8008 5.8212 36.1519C5.6289 36.4211 5.42433 36.6448 5.17969 36.8672C4.8037 36.6917 4.56303 36.5552 4.26562 36.2578C4.30152 35.2528 4.62481 34.4293 5.02734 33.5156Z" fill="white"/>
</g>
<defs>
<clipPath id="clip0_1_2136">
<rect width="39" height="39" fill="white"/>
</clipPath>
</defs>
</svg>
