<svg width="38" height="39" viewBox="0 0 38 39" fill="none" xmlns="http://www.w3.org/2000/svg">
<g id="Simplification">
<path id="Vector" d="M17.245 22.9383C17.3837 22.9375 17.5223 22.9367 17.6652 22.9359C17.9563 22.9349 18.2474 22.9351 18.5386 22.9364C18.979 22.9377 19.4191 22.9333 19.8595 22.9285C21.6801 22.9213 23.4309 22.9406 24.8814 24.2326C24.9997 24.3349 25.1179 24.4372 25.2398 24.5427C25.5309 24.8325 25.5309 24.8325 25.8277 25.2895C26.1076 25.3576 26.1076 25.3576 26.4327 25.3457C26.5577 25.3468 26.6827 25.3478 26.8115 25.3489C26.9472 25.3479 27.083 25.347 27.2228 25.346C27.5114 25.3487 27.7999 25.3514 28.0885 25.3541C28.5425 25.3556 28.9965 25.3562 29.4505 25.3559C31.6541 25.3587 33.5482 25.3742 35.2987 26.9224C36.6291 28.3412 36.8705 29.8806 36.8753 31.7756C36.877 32.104 36.8843 32.432 36.8918 32.7603C36.9089 34.2585 36.6725 35.3538 35.7267 36.5344C34.8186 37.293 34.0444 37.8023 32.8523 37.799C32.7156 37.799 32.579 37.799 32.4382 37.799C32.2919 37.7982 32.1456 37.7974 31.9948 37.7966C31.8441 37.7964 31.6934 37.7961 31.5381 37.7959C31.0572 37.7951 30.5762 37.7931 30.0953 37.7912C29.7691 37.7904 29.4428 37.7898 29.1165 37.7891C28.3171 37.7874 27.5178 37.7848 26.7184 37.7817C26.7184 37.3292 26.7184 36.8768 26.7184 36.4106C28.4818 36.4106 30.2452 36.4106 32.0621 36.4106C32.0621 34.1986 32.0621 31.9865 32.0621 29.7075C32.454 29.7075 32.8459 29.7075 33.2496 29.7075C33.2496 31.8692 33.2496 34.031 33.2496 36.2583C34.5572 35.629 34.5572 35.629 35.29 34.4516C35.7345 32.7779 35.7042 30.5693 34.9381 28.9934C34.2313 27.8611 33.3039 27.2981 32.0621 26.9653C31.6173 26.9037 31.1787 26.8912 30.7302 26.8873C30.6102 26.8846 30.4902 26.8819 30.3665 26.879C29.9885 26.8709 29.6106 26.8657 29.2325 26.8605C28.974 26.8555 28.7155 26.8502 28.457 26.8448C27.828 26.8319 27.199 26.8217 26.5699 26.8129C26.6189 26.9638 26.6679 27.1146 26.7184 27.27C26.7343 27.5377 26.7419 27.8059 26.7446 28.0741C26.7475 28.3205 26.7475 28.3205 26.7504 28.5719C26.7515 28.7495 26.7526 28.927 26.7537 29.11C26.7549 29.2928 26.7561 29.4756 26.7574 29.6639C26.7594 30.0512 26.761 30.4385 26.7622 30.8257C26.7647 31.4169 26.7712 32.0079 26.7778 32.599C26.7793 32.9753 26.7806 33.3516 26.7816 33.7279C26.7842 33.9043 26.7868 34.0806 26.7894 34.2623C26.7864 35.4101 26.6588 36.1025 25.8979 36.9753C24.5677 38.0456 23.8726 37.7817 21.9684 37.7817C21.9684 34.5139 21.9684 31.2461 21.9684 27.8793C22.3602 27.8793 22.7521 27.8793 23.1559 27.8793C23.1559 30.6947 23.1559 33.51 23.1559 36.4106C24.4541 36.1811 24.4541 36.1811 25.234 35.3442C25.426 34.6623 25.4064 33.966 25.4073 33.262C25.4078 33.1348 25.4083 33.0076 25.4088 32.8766C25.4096 32.6078 25.4099 32.339 25.4099 32.0703C25.4102 31.6634 25.4129 31.2566 25.4158 30.8498C25.4643 28.1074 25.4643 28.1074 24.2361 25.765C23.1789 24.7317 22.0297 24.4563 20.5965 24.4617C20.4704 24.4609 20.3444 24.4601 20.2146 24.4593C19.9499 24.4583 19.6852 24.4585 19.4205 24.4598C19.0201 24.4611 18.6201 24.4567 18.2197 24.4519C16.0292 24.3892 16.0292 24.3892 14.1528 25.3862C14.0538 25.4892 14.0538 25.4892 13.9527 25.5942C13.8548 25.5942 13.7568 25.5942 13.6559 25.5942C13.4499 26.014 13.2467 26.4347 13.0528 26.8605C12.9768 27.0246 12.9768 27.0246 12.8992 27.192C12.5816 28.0991 12.5932 29.0554 12.5919 30.0074C12.5914 30.1352 12.5909 30.2631 12.5904 30.3948C12.5896 30.6636 12.5893 30.9325 12.5893 31.2014C12.589 31.6106 12.5863 32.0197 12.5835 32.4288C12.583 32.6913 12.5827 32.9537 12.5826 33.2161C12.581 33.3978 12.581 33.3978 12.5793 33.5831C12.5823 34.3283 12.6585 34.9479 12.9137 35.6489C13.5814 36.2545 13.9118 36.274 14.8434 36.4106C14.8434 33.5953 14.8434 30.78 14.8434 27.8793C15.2352 27.8793 15.6271 27.8793 16.0309 27.8793C16.0309 31.1471 16.0309 34.4149 16.0309 37.7817C12.9299 37.7817 12.9299 37.7817 12.0578 36.9105C11.4622 36.2364 11.2624 35.7551 11.2616 34.8351C11.2612 34.6688 11.2607 34.5026 11.2602 34.3313C11.2607 34.0621 11.2607 34.0621 11.2611 33.7874C11.261 33.6032 11.2609 33.4189 11.2607 33.2291C11.2606 32.8393 11.2609 32.4495 11.2615 32.0597C11.2623 31.4618 11.2615 30.8641 11.2606 30.2663C11.2607 29.888 11.2608 29.5097 11.2611 29.1314C11.2608 28.9519 11.2605 28.7725 11.2602 28.5875C11.2609 28.3382 11.2609 28.3382 11.2616 28.0838C11.2618 27.9373 11.2619 27.7908 11.262 27.64C11.2809 27.27 11.2809 27.27 11.4293 26.8129C10.6769 26.8197 9.92474 26.8304 9.17247 26.8446C8.91726 26.8488 8.66203 26.8521 8.4068 26.8542C5.88823 26.8585 5.88823 26.8585 3.71982 28.0603C2.41478 29.5602 2.44966 31.4545 2.52304 33.3637C2.60084 34.2774 2.84263 34.8749 3.42468 35.5715C3.80327 35.896 3.80327 35.896 4.7496 36.2583C4.7496 34.0965 4.7496 31.9347 4.7496 29.7075C5.14148 29.7075 5.53335 29.7075 5.9371 29.7075C5.9371 31.9195 5.9371 34.1315 5.9371 36.4106C7.70054 36.4106 9.46398 36.4106 11.2809 36.4106C11.2809 36.8631 11.2809 37.3155 11.2809 37.7817C10.3356 37.7968 9.39044 37.8079 8.4451 37.8152C8.12406 37.8182 7.80302 37.8224 7.482 37.8277C7.01843 37.8351 6.55496 37.8385 6.09134 37.8412C5.8788 37.8459 5.8788 37.8459 5.66196 37.8507C4.45578 37.8511 3.18858 37.5461 2.28071 36.6695C1.27964 35.3928 1.04602 34.0579 1.07915 32.4622C1.08505 32.1451 1.0822 31.8289 1.07839 31.5118C1.07937 29.8535 1.41591 28.2783 2.56479 27.045C3.94088 25.7932 5.37013 25.3701 7.18781 25.396C7.47724 25.3949 7.76667 25.3936 8.05611 25.3922C8.5063 25.3925 8.9564 25.3943 9.40658 25.3984C9.84531 25.4016 10.2838 25.3992 10.7225 25.396C10.924 25.4003 10.924 25.4003 11.1297 25.4046C11.8221 25.4086 11.8221 25.4086 12.4151 25.0885C12.6431 24.8155 12.6431 24.8155 12.9137 24.3754C13.2262 24.1023 13.2262 24.1023 13.5352 23.8898C13.6854 23.7829 13.6854 23.7829 13.8385 23.6738C14.9374 23.106 16.0268 22.9341 17.245 22.9383Z" fill="white"/>
<path id="Vector_2" d="M18.6838 1.01839C18.9901 1.01888 19.2961 1.0153 19.6023 1.01144C19.797 1.01134 19.9917 1.01124 20.1923 1.01114C20.3695 1.01069 20.5467 1.01023 20.7292 1.00977C21.421 1.08854 21.9019 1.29947 22.3936 1.80931C22.5985 2.20003 22.6146 2.45015 22.6068 2.89223C22.6053 3.03461 22.6039 3.17698 22.6024 3.32367C22.5987 3.47115 22.5949 3.61864 22.5911 3.77059C22.5891 3.92043 22.5871 4.07026 22.585 4.22464C22.5798 4.59388 22.5725 4.96295 22.5633 5.33211C22.6898 5.35715 22.6898 5.35715 22.819 5.38269C23.5761 5.54225 24.2383 5.75756 24.9383 6.09383C25.1047 5.91768 25.1047 5.91768 25.2746 5.73796C25.4222 5.5836 25.5699 5.42927 25.7176 5.27498C25.7905 5.19761 25.8634 5.12023 25.9385 5.04051C26.5217 4.43393 26.9568 4.07435 27.7957 4.03719C28.6531 4.06857 29.0786 4.43864 29.6883 5.02742C29.8106 5.14518 29.8106 5.14518 29.9354 5.26531C30.2173 5.53899 30.4961 5.81562 30.7737 6.09383C30.8644 6.18419 30.9552 6.27455 31.0487 6.36765C31.6345 6.97033 32.139 7.54451 32.2592 8.42064C32.1667 9.44213 31.7274 9.9652 31.0242 10.6641C30.9471 10.7451 30.87 10.826 30.7905 10.9093C30.6236 11.0841 30.4532 11.2555 30.282 11.4259C30.3107 11.5142 30.3394 11.6026 30.369 11.6937C30.5874 12.3661 30.8058 13.0386 31.0242 13.711C31.2067 13.7167 31.3893 13.7224 31.5774 13.7283C31.8197 13.7383 32.0621 13.7484 32.3045 13.7586C32.4244 13.7621 32.5444 13.7655 32.668 13.769C33.5195 13.8081 34.1961 13.9246 34.8295 14.5664C35.1137 15.0763 35.0986 15.557 35.0964 16.1289C35.0972 16.2446 35.0979 16.3602 35.0987 16.4794C35.0997 16.7236 35.0995 16.9678 35.0982 17.212C35.097 17.5845 35.1012 17.9567 35.1059 18.3292C35.1062 18.567 35.1061 18.8047 35.1057 19.0425C35.1073 19.1532 35.109 19.264 35.1107 19.3782C35.1008 20.1228 34.9517 20.4996 34.4383 21.0235C33.9841 21.3294 33.823 21.3282 33.2508 21.3282C33.2508 20.8757 33.2508 20.4233 33.2508 19.9571C33.3487 19.9068 33.4467 19.8566 33.5476 19.8048C33.7078 19.3116 33.713 18.9551 33.7106 18.4366C33.7101 18.2594 33.7096 18.0822 33.7091 17.8996C33.7079 17.7145 33.7066 17.5294 33.7054 17.3387C33.7043 17.0584 33.7043 17.0584 33.7033 16.7725C33.7016 16.3106 33.6989 15.8487 33.6961 15.3868C32.4715 15.3365 31.2469 15.2863 29.9851 15.2345C29.5027 13.9395 29.5027 13.9395 29.3547 13.5393C29.0612 12.7586 28.7276 12.0165 28.3523 11.2735C28.419 11.2075 28.4857 11.1415 28.5544 11.0734C28.8562 10.7732 29.1563 10.4711 29.4563 10.169C29.5613 10.0651 29.6662 9.96125 29.7744 9.85422C29.8743 9.75308 29.9743 9.65195 30.0773 9.54775C30.1698 9.4552 30.2623 9.36266 30.3576 9.26731C30.6074 8.95243 30.7157 8.78668 30.7273 8.37899C30.37 7.84571 29.896 7.413 29.4471 6.96028C29.2642 6.76631 29.2642 6.76631 29.0777 6.56842C28.9589 6.44695 28.84 6.32549 28.7176 6.20035C28.5541 6.03265 28.5541 6.03265 28.3873 5.86156C28.0689 5.59913 28.0689 5.59913 27.6759 5.64766C27.2789 5.80253 27.0795 5.95832 26.7862 6.27057C26.6948 6.36631 26.6035 6.46204 26.5093 6.56068C26.4164 6.66113 26.3235 6.76158 26.2278 6.86507C26.0842 7.01663 26.0842 7.01663 25.9376 7.17124C25.7021 7.42016 25.468 7.67039 25.2351 7.92195C24.5146 7.687 23.8493 7.38951 23.168 7.05609C22.5848 6.79978 21.9777 6.60443 21.3758 6.39852C21.3023 4.51326 21.3023 4.51326 21.2273 2.58992C19.7578 2.58992 18.2883 2.58992 16.7742 2.58992C16.7252 3.84676 16.6762 5.10359 16.6258 6.39852C16.2584 6.53677 15.891 6.67502 15.5125 6.81746C14.8336 7.07366 14.1792 7.33114 13.5457 7.69344C13.0633 7.92195 13.0633 7.92195 12.7913 7.84162C12.24 7.45726 11.8078 6.93783 11.3577 6.4375C10.9041 5.95182 10.6112 5.66163 9.94608 5.6368C9.59798 5.86782 9.59798 5.86782 9.28913 6.22177C9.17097 6.34598 9.05281 6.4702 8.93108 6.59817C8.80986 6.73024 8.68864 6.8623 8.56375 6.99837C8.43967 7.12985 8.31558 7.26132 8.18773 7.39678C7.88114 7.72224 7.5768 8.04962 7.2742 8.37899C7.45976 8.92374 7.65204 9.2797 8.05466 9.68164C8.14746 9.77542 8.24026 9.86919 8.33588 9.9658C8.48082 10.1088 8.48082 10.1088 8.62869 10.2547C8.72647 10.353 8.82425 10.4513 8.92499 10.5526C9.16541 10.794 9.40682 11.0342 9.6492 11.2735C9.57936 11.4208 9.50952 11.5681 9.43756 11.7198C8.96234 12.7353 8.51829 13.7197 8.24021 14.8143C8.16483 15.0821 8.16483 15.0821 8.01639 15.2345C7.74152 15.2585 7.46582 15.2727 7.19013 15.2827C7.02318 15.289 6.85623 15.2954 6.68422 15.302C6.50847 15.308 6.33272 15.314 6.15164 15.3201C5.97532 15.3267 5.79899 15.3333 5.61733 15.3401C5.18005 15.3563 4.74277 15.3718 4.30545 15.3868C4.30115 16.0374 4.29851 16.6881 4.29617 17.3387C4.29493 17.5238 4.29369 17.7089 4.29241 17.8996C4.29193 18.0768 4.29145 18.254 4.29096 18.4366C4.29018 18.6002 4.2894 18.7637 4.2886 18.9322C4.28735 19.3622 4.28735 19.3622 4.45389 19.8048C4.55186 19.855 4.64983 19.9053 4.75076 19.9571C4.75076 20.4096 4.75076 20.862 4.75076 21.3282C4.02833 21.2592 3.6461 21.0776 3.11795 20.5665C2.89007 20.0987 2.93914 19.6061 2.93414 19.0924C2.93295 18.9763 2.93175 18.8602 2.93051 18.7406C2.92846 18.4946 2.92687 18.2486 2.9257 18.0026C2.92315 17.6274 2.91663 17.2524 2.91008 16.8772C2.90858 16.6381 2.90731 16.399 2.90631 16.1598C2.90371 16.0481 2.90112 15.9363 2.89844 15.8212C2.90073 15.2637 2.95248 14.9568 3.25023 14.4842C3.95254 13.775 4.7538 13.8045 5.68778 13.7681C5.81186 13.7623 5.93595 13.7564 6.0638 13.7503C6.36826 13.736 6.67279 13.7233 6.97733 13.711C7.10999 13.3948 7.23923 13.0772 7.36698 12.7589C7.4393 12.5821 7.51163 12.4054 7.58615 12.2233C7.75555 11.7586 7.75555 11.7586 7.63486 11.4038C7.27048 10.9185 6.83284 10.52 6.39749 10.103C6.00194 9.65383 5.82739 9.26544 5.74634 8.66761C5.80444 7.4904 6.48794 6.8851 7.2742 6.09383C7.46851 5.88645 7.46851 5.88645 7.66675 5.67488C9.05914 4.20086 9.05914 4.20086 9.83417 4.04731C11.0488 4.04508 11.6074 4.59008 12.451 5.44637C12.6558 5.66145 12.8601 5.87703 13.0633 6.09383C13.1974 6.03884 13.3315 5.98386 13.4697 5.9272C13.6448 5.85651 13.8199 5.78581 14.0003 5.71297C14.1742 5.64227 14.3481 5.57158 14.5273 5.49874C14.993 5.33211 14.993 5.33211 15.4383 5.33211C15.4336 5.19272 15.4336 5.19272 15.4288 5.05052C15.4165 4.62708 15.4088 4.20367 15.4012 3.78011C15.3962 3.6339 15.3912 3.4877 15.3861 3.33706C15.3772 2.677 15.3731 2.25273 15.6911 1.66812C16.576 0.897355 17.5788 1.01476 18.6838 1.01839Z" fill="white"/>
<path id="Vector_3" d="M24.3243 10.8315C25.8182 12.146 27.0375 13.9552 27.3133 15.9951C27.335 16.5548 27.3314 17.1111 27.3133 17.6709C26.8725 17.6709 26.4316 17.6709 25.9774 17.6709C25.968 17.5417 25.9586 17.4124 25.949 17.2793C25.7522 15.3451 25.074 13.4971 23.6024 12.1865C21.9162 10.8872 20.2099 10.3655 18.1102 10.5107C16.4001 10.8136 14.8037 11.5918 13.6571 12.9482C12.8176 14.1763 12.2011 15.4632 12.0799 16.9758C12.0688 17.1076 12.0577 17.2394 12.0463 17.3751C12.039 17.4727 12.0318 17.5703 12.0243 17.6709C11.5834 17.6709 11.1425 17.6709 10.6883 17.6709C10.5249 15.3467 11.3558 13.4514 12.7943 11.7009C15.8712 8.3374 20.779 8.15593 24.3243 10.8315Z" fill="white"/>
<path id="Vector_4" d="M31.5788 18.3861C32.41 19.2628 32.705 20.0291 32.7385 21.2616C32.6923 22.5093 32.4615 23.2686 31.5696 24.118C30.649 24.8495 29.8128 25.0811 28.6571 25.047C27.5361 24.8931 26.7019 24.3271 25.9985 23.4372C25.3701 22.4089 25.3979 21.2791 25.53 20.1095C25.893 19.0819 26.518 18.3308 27.4597 17.8243C28.9395 17.1156 30.2662 17.5594 31.5788 18.3861ZM27.0886 19.8905C26.7713 20.6369 26.7356 21.2884 26.8659 22.0899C27.1257 22.7173 27.4836 23.0683 28.0256 23.4515C28.7038 23.6835 29.2978 23.7565 29.9721 23.5081C30.6174 23.1691 31.0144 22.7778 31.3191 22.0899C31.4318 21.2899 31.413 20.6351 31.0964 19.8905C30.5147 19.2785 29.9146 18.9552 29.0925 18.8146C28.2704 18.9552 27.6704 19.2785 27.0886 19.8905Z" fill="white"/>
<path id="Vector_5" d="M11.3913 18.3861C12.2225 19.2628 12.5175 20.0291 12.551 21.2616C12.5048 22.5093 12.274 23.2686 11.3821 24.118C10.4615 24.8495 9.62527 25.0811 8.46955 25.047C7.34864 24.8931 6.51443 24.3271 5.81101 23.4372C5.18264 22.4089 5.21042 21.2791 5.34251 20.1095C5.70552 19.0819 6.33051 18.3308 7.2722 17.8243C8.75196 17.1156 10.0787 17.5594 11.3913 18.3861ZM6.9011 19.8905C6.58376 20.6369 6.54809 21.2884 6.67845 22.0899C6.93822 22.7173 7.29605 23.0683 7.83811 23.4515C8.51629 23.6835 9.1103 23.7565 9.78462 23.5081C10.4299 23.1691 10.8269 22.7778 11.1316 22.0899C11.2443 21.2899 11.2255 20.6351 10.9089 19.8905C10.3272 19.2785 9.72708 18.9552 8.90501 18.8146C8.08294 18.9552 7.48286 19.2785 6.9011 19.8905Z" fill="white"/>
<path id="Vector_6" d="M21.4851 15.9486C22.3162 16.8253 22.6113 17.5916 22.6448 18.8241C22.5986 20.0718 22.3677 20.8311 21.4758 21.6805C20.5553 22.412 19.719 22.6436 18.5633 22.6095C17.4424 22.4556 16.6082 21.8896 15.9048 20.9997C15.2764 19.9714 15.3042 18.8416 15.4363 17.672C15.7993 16.6444 16.4243 15.8933 17.3659 15.3868C18.8457 14.6781 20.1724 15.1219 21.4851 15.9486ZM16.9949 17.453C16.6775 18.1994 16.6418 18.8509 16.7722 19.6524C17.032 20.2798 17.3898 20.6308 17.9319 21.014C18.61 21.246 19.204 21.319 19.8784 21.0706C20.5236 20.7316 20.9207 20.3403 21.2253 19.6524C21.338 18.8524 21.3192 18.1976 21.0027 17.453C20.4209 16.841 19.8208 16.5177 18.9988 16.3771C18.1767 16.5177 17.5766 16.841 16.9949 17.453Z" fill="white"/>
<path id="Vector_7" d="M16.625 36.4102C18.1925 36.4102 19.76 36.4102 21.375 36.4102C21.375 36.8626 21.375 37.3151 21.375 37.7812C19.8075 37.7812 18.24 37.7812 16.625 37.7812C16.625 37.3288 16.625 36.8763 16.625 36.4102Z" fill="white"/>
</g>
</svg>
