<svg xmlns="http://www.w3.org/2000/svg" width="41" height="41" viewBox="0 0 41 41" fill="none">
  <g clip-path="url(#clip0_1_1658)">
    <path d="M34.1361 19.4892C34.2996 19.4933 34.4632 19.4973 34.6317 19.5014C35.0046 19.5231 35.3679 19.5553 35.7376 19.6064C36.2294 19.6699 36.6348 19.6768 37.1243 19.6552C38.073 19.6494 38.7495 19.9202 39.4357 20.5781C40.0944 21.3165 40.2761 21.8484 40.2982 22.8486C40.304 23.0202 40.3098 23.1918 40.3159 23.3686C40.1676 24.5601 39.3507 25.3405 38.5361 26.1534C38.4277 26.2633 38.3194 26.3732 38.2078 26.4864C37.8511 26.8475 37.4927 27.2069 37.1341 27.566C36.8837 27.8179 36.6334 28.0698 36.3831 28.3218C35.8585 28.8491 35.333 29.3755 34.8069 29.9013C34.1359 30.5723 33.4682 31.2464 32.8013 31.9214C32.2852 32.4427 31.7669 32.9619 31.2481 33.4805C31.0012 33.728 30.755 33.9762 30.5096 34.2252C27.3589 37.4183 27.3589 37.4183 25.2967 37.5173C25.0539 37.5175 25.0539 37.5175 24.8062 37.5178C24.5271 37.5182 24.5271 37.5182 24.2424 37.5187C24.0397 37.518 23.837 37.5173 23.6282 37.5166C23.5238 37.5164 23.4193 37.5163 23.3116 37.5161C21.1045 37.5128 18.8991 37.454 16.6932 37.3853C16.2256 37.3716 15.758 37.3615 15.2903 37.351C14.928 37.3405 14.5664 37.3231 14.2044 37.3053C12.6346 37.2442 11.5291 37.4436 10.1224 38.2099C9.80655 38.3747 9.48981 38.5378 9.17206 38.6988C9.03695 38.7716 8.90184 38.8445 8.76263 38.9195C8.28043 39.0934 8.08054 39.0554 7.59309 38.9033C7.22034 38.612 7.22034 38.612 6.83026 38.2263C6.68329 38.0823 6.53632 37.9383 6.3849 37.79C6.22661 37.6316 6.06843 37.4731 5.91035 37.3145C5.74688 37.1523 5.58335 36.9901 5.41975 36.828C5.07761 36.4882 4.73671 36.1472 4.39656 35.8054C3.96082 35.3679 3.52163 34.934 3.08138 34.501C2.74288 34.1671 2.40658 33.831 2.07088 33.4944C1.90982 33.3335 1.74803 33.1733 1.58549 33.0139C1.35845 32.7907 1.13468 32.5642 0.911071 32.3376C0.782966 32.2097 0.654862 32.0818 0.522875 31.95C0.182292 31.4638 0.165508 31.2042 0.249335 30.622C0.539874 30.2437 0.811402 29.9393 1.15143 29.6119C1.24484 29.5187 1.33824 29.4255 1.43447 29.3295C1.63278 29.1326 1.83222 28.9369 2.03271 28.7422C2.33511 28.4483 2.63369 28.1508 2.93183 27.8526C5.01206 25.7901 7.07233 24.2732 10.0931 24.0595C11.6722 24.1062 13.2462 24.2919 14.8148 24.4703C15.033 24.4947 15.2512 24.519 15.4695 24.5432C16.2673 24.6319 17.065 24.7217 17.8627 24.8116C18.5426 24.8882 19.2225 24.9643 19.9025 25.0398C20.2179 25.075 20.5331 25.1109 20.8484 25.1468C21.0409 25.1682 21.2335 25.1896 21.4319 25.2116C21.6 25.2306 21.7682 25.2495 21.9414 25.2691C22.9309 25.3988 22.9309 25.3988 23.8327 25.1087C23.9103 25.0171 23.9878 24.9254 24.0677 24.831C24.4407 24.4163 24.8138 24.0396 25.2396 23.6787C25.6784 23.3008 26.093 22.9097 26.4993 22.497C27.0995 21.891 27.7144 21.3188 28.3743 20.7783C28.4611 20.6985 28.548 20.6188 28.6374 20.5366C29.4662 19.8795 30.3059 19.9374 31.3171 19.9983C32.3708 20.052 33.0941 19.4616 34.1361 19.4892ZM30.7828 22.9005C30.3552 23.3287 29.9062 23.7219 29.4467 24.1151C29.061 24.4555 28.7047 24.8211 28.3444 25.1881C27.8549 25.6692 27.3334 26.1138 26.8118 26.5595C26.915 26.8689 27.0181 27.1783 27.1243 27.497C27.6025 27.5483 27.6025 27.5483 27.9025 27.2279C28.0163 27.1072 28.1301 26.9866 28.2474 26.8623C28.6985 26.3951 29.1504 25.9467 29.6439 25.5244C30.1428 25.0965 30.605 24.6448 31.0654 24.1761C31.3534 23.8932 31.6522 23.6293 31.9583 23.3662C32.5158 22.8863 33.0312 22.3751 33.5465 21.8507C33.8177 21.5845 34.0955 21.3404 34.39 21.1006C34.5189 20.9942 34.6478 20.8879 34.7806 20.7783C34.7806 20.7267 34.7806 20.6752 34.7806 20.622C32.9049 20.4136 32.016 21.6386 30.7828 22.9005ZM30.015 21.042C29.1798 21.3843 28.6204 22.0449 28.0106 22.6875C27.6623 23.0499 27.311 23.3823 26.929 23.708C26.338 24.2126 25.792 24.7537 25.2493 25.3095C25.1462 25.4127 25.0431 25.5158 24.9368 25.622C25.2671 25.8225 25.4691 25.945 25.8597 25.901C26.2735 25.7458 26.4717 25.5341 26.7728 25.2119C27.191 24.7766 27.6131 24.3643 28.0716 23.9716C28.5717 23.5417 29.0362 23.0889 29.498 22.6185C29.9875 22.1374 30.509 21.6928 31.0306 21.247C30.5767 20.8649 30.5767 20.8649 30.015 21.042ZM34.6707 22.2883C34.3477 22.6168 34.017 22.9202 33.6673 23.2197C33.1684 23.6476 32.7061 24.0993 32.2458 24.568C31.9578 24.8509 31.659 25.1147 31.3529 25.3779C30.8017 25.8526 30.2919 26.3576 29.7818 26.8757C29.472 27.1806 29.1526 27.467 28.8236 27.7509C27.7318 28.6684 27.7318 28.6684 26.9681 29.8506C26.6656 30.5112 26.3115 30.8304 25.7181 31.247C25.0885 31.4569 24.4829 31.4262 23.8266 31.4228C23.6822 31.4224 23.5378 31.422 23.3891 31.4216C21.5954 31.4098 19.8046 31.328 18.013 31.247C17.6666 31.2319 17.3203 31.2169 16.9739 31.2019C16.1386 31.1656 15.3033 31.1285 14.4681 31.0908C14.4681 30.7814 14.4681 30.472 14.4681 30.1533C14.6686 30.1628 14.8692 30.1722 15.0758 30.182C15.8367 30.2177 16.5977 30.2524 17.3587 30.2868C17.6849 30.3017 18.011 30.3168 18.3372 30.3323C19.4431 30.3845 20.5491 30.4291 21.6556 30.4658C21.8892 30.4741 21.8892 30.4741 22.1276 30.4826C22.5767 30.497 23.0257 30.5066 23.475 30.5146C23.609 30.5193 23.743 30.5239 23.881 30.5287C24.7278 30.5368 25.2054 30.4095 25.8743 29.8408C26.2472 29.2996 26.3449 29.0056 26.3333 28.3466C26.1508 27.6772 25.8926 27.2411 25.3015 26.8608C24.799 26.661 24.2939 26.6106 23.7606 26.5537C23.6428 26.5402 23.5251 26.5267 23.4038 26.5128C23.0142 26.4684 22.6245 26.4257 22.2348 26.3831C21.9618 26.3525 21.6888 26.3218 21.4158 26.291C20.8423 26.2266 20.2687 26.163 19.695 26.1C18.9672 26.02 18.2396 25.9384 17.512 25.8562C16.947 25.7925 16.3819 25.7296 15.8168 25.6668C15.549 25.637 15.2813 25.6071 15.0135 25.5769C13.6742 25.4266 12.3351 25.2902 10.9901 25.2015C10.8839 25.1939 10.7776 25.1862 10.6681 25.1783C8.97813 25.0786 7.40365 25.5802 6.03059 26.5595C5.47992 27.0547 4.96669 27.5748 4.46809 28.122C5.59891 29.474 6.83332 30.7287 8.06651 31.9867C8.46094 32.3892 8.85334 32.7933 9.24153 33.2018C9.62038 33.6003 10.0038 33.994 10.3906 34.3848C10.6057 34.6044 10.8161 34.8286 11.0263 35.0529C11.9298 35.954 12.5577 36.2542 13.8397 36.2612C13.9955 36.2565 14.1513 36.2518 14.3118 36.247C14.5359 36.2559 14.76 36.2663 14.9839 36.2791C15.1796 36.2848 15.3754 36.2906 15.5771 36.2965C15.7425 36.3014 15.7425 36.3014 15.9112 36.3065C17.0407 36.3391 18.1705 36.3635 19.3002 36.3863C19.8268 36.3971 20.3533 36.4101 20.8798 36.4251C21.5154 36.443 22.1508 36.4558 22.7865 36.4652C23.0253 36.4694 23.264 36.4753 23.5027 36.483C23.8378 36.4934 24.1725 36.4975 24.5078 36.5003C24.7913 36.5062 24.7913 36.5062 25.0806 36.5122C27.2713 36.2665 28.766 34.4306 30.2206 32.9627C30.4689 32.7151 30.7174 32.4676 30.9659 32.2202C31.4839 31.7036 32.0002 31.1853 32.5153 30.6658C33.1741 30.0016 33.837 29.3418 34.5013 28.6832C35.0141 28.1737 35.5247 27.6621 36.0346 27.1497C36.2781 26.9056 36.5224 26.6621 36.7674 26.4193C37.1096 26.0795 37.4486 25.7368 37.7869 25.3933C37.8875 25.2946 37.988 25.1959 38.0917 25.0943C38.7513 24.4158 39.1424 23.751 39.3118 22.8095C39.1873 22.09 38.8812 21.6121 38.3743 21.0908C36.8144 20.2287 35.7383 21.1813 34.6707 22.2883ZM3.10517 29.4697C2.93082 29.6451 2.75689 29.8209 2.58332 29.997C2.4946 30.0865 2.40587 30.1759 2.31446 30.268C2.09449 30.4899 1.87499 30.7122 1.65559 30.9345C1.88351 31.4595 2.17257 31.802 2.57729 32.2042C2.7024 32.3293 2.8275 32.4544 2.9564 32.5833C3.0915 32.7167 3.2266 32.8502 3.36579 32.9878C3.50407 33.1256 3.64236 33.2634 3.78483 33.4055C4.1516 33.7708 4.51903 34.1354 4.88681 34.4997C5.26233 34.872 5.63696 35.2452 6.01166 35.6184C6.74632 36.3496 7.48186 37.0799 8.21809 37.8095C8.46358 37.713 8.70891 37.6161 8.95417 37.519C9.09081 37.4651 9.22744 37.4111 9.36822 37.3556C9.93882 37.1189 10.4823 36.8438 11.0306 36.5595C10.2691 35.6424 9.44925 34.7992 8.60566 33.9576C8.46516 33.817 8.32467 33.6763 8.17991 33.5314C7.88476 33.2362 7.58947 32.9411 7.2939 32.6462C6.91436 32.2676 6.53553 31.8882 6.15691 31.5087C5.79515 31.1462 5.4328 30.7844 5.0705 30.4225C4.93412 30.2858 4.79774 30.1491 4.65722 30.0082C4.532 29.8835 4.40678 29.7588 4.27777 29.6303C4.16714 29.5197 4.05651 29.4092 3.94252 29.2954C3.51559 28.9016 3.56805 29.0234 3.10517 29.4697Z" fill="white"/>
    <path d="M19.0208 1.83259C19.152 1.83371 19.2832 1.83483 19.4184 1.83599C19.6201 1.8361 19.6201 1.8361 19.8258 1.83621C20.1102 1.83668 20.3945 1.83791 20.6789 1.83984C21.1158 1.8427 21.5526 1.84305 21.9895 1.84301C22.2653 1.84378 22.5411 1.84469 22.8168 1.84576C22.9483 1.84593 23.0798 1.8461 23.2153 1.84628C24.136 1.85387 24.136 1.85387 24.3104 2.02825C24.3251 2.36857 24.3287 2.70938 24.3281 3.05002C24.3281 3.15672 24.3281 3.26342 24.3282 3.37336C24.3281 3.72761 24.3268 4.08184 24.3256 4.43609C24.3253 4.68109 24.3251 4.92608 24.3249 5.17108C24.3244 5.81712 24.3228 6.46315 24.3211 7.10919C24.3195 7.76794 24.3188 8.42669 24.318 9.08544C24.3163 10.3789 24.3136 11.6723 24.3104 12.9658C24.4129 12.9641 24.5154 12.9625 24.621 12.9608C25.0838 12.9543 25.5467 12.9502 26.0096 12.9462C26.1709 12.9436 26.3322 12.941 26.4985 12.9383C26.6526 12.9373 26.8066 12.9363 26.9654 12.9352C27.179 12.9328 27.179 12.9328 27.3968 12.9303C27.7479 12.9658 27.7479 12.9658 28.0604 13.2783C28.0466 13.825 27.9282 14.0332 27.5568 14.4391C27.4104 14.5652 27.264 14.6913 27.1131 14.8212C27.0352 14.8893 26.9572 14.9574 26.8769 15.0275C26.6477 15.2272 26.4166 15.4247 26.1854 15.622C25.9736 15.8073 25.762 15.9928 25.5506 16.1786C25.4521 16.2642 25.3536 16.3498 25.2521 16.438C24.883 16.7616 24.5185 17.09 24.1541 17.4189C23.5719 17.9439 22.9891 18.4679 22.3951 18.9795C22.16 19.1835 21.9308 19.3944 21.7029 19.6064C21.3416 19.8408 21.3416 19.8408 20.9852 19.8273C20.4211 19.6377 20.0685 19.2915 19.6522 18.8837C19.4856 18.7257 19.319 18.5679 19.1523 18.4101C19.072 18.3333 18.9918 18.2566 18.9091 18.1775C18.6265 17.91 18.3353 17.6537 18.0408 17.3993C17.4392 16.8776 16.8484 16.3443 16.2574 15.8106C15.9041 15.4938 15.5476 15.1811 15.1893 14.87C15.09 14.7826 14.9907 14.6952 14.8884 14.6052C14.668 14.4117 14.4455 14.2206 14.2225 14.0302C13.9979 13.747 13.9979 13.747 14.0272 13.4052C14.1541 13.122 14.1541 13.122 14.3104 12.9658C14.5658 12.9522 14.8218 12.949 15.0776 12.9505C15.2322 12.951 15.3867 12.9515 15.546 12.952C15.7087 12.9533 15.8713 12.9546 16.0389 12.956C16.2837 12.957 16.2837 12.957 16.5336 12.9581C16.9383 12.96 17.3431 12.9625 17.7479 12.9658C17.7472 12.8314 17.7465 12.697 17.7458 12.5586C17.7395 11.294 17.7347 10.0294 17.7317 8.76484C17.73 8.11466 17.7278 7.4645 17.7243 6.81432C17.7209 6.18721 17.719 5.56011 17.7182 4.93299C17.7176 4.69339 17.7165 4.45378 17.7148 4.21419C17.7126 3.87933 17.7122 3.54453 17.7124 3.20966C17.7117 3.01883 17.711 2.828 17.7103 2.63138C17.7836 1.76005 18.2611 1.8356 19.0208 1.83259ZM18.8416 2.96575C18.8416 6.26575 18.8416 9.56575 18.8416 12.9658C20.2854 12.9658 21.7291 12.9658 23.2166 12.9658C23.2166 9.66575 23.2166 6.36575 23.2166 2.96575C21.7729 2.96575 20.3291 2.96575 18.8416 2.96575ZM16.1854 14.0595C16.9905 15.0006 16.9905 15.0006 17.865 15.8368C17.9984 15.9545 18.1317 16.0721 18.2691 16.1933C18.4751 16.3746 18.4751 16.3746 18.6854 16.5595C19.0906 16.9265 19.4953 17.2941 19.9 17.6618C20.0148 17.7621 20.1296 17.8624 20.2479 17.9658C20.3498 18.0628 20.4517 18.1599 20.5567 18.2599C20.8666 18.474 20.8666 18.474 21.2311 18.3729C21.8304 18.0174 22.2985 17.5609 22.7967 17.0771C23.0055 16.878 23.2144 16.679 23.4235 16.4802C23.5229 16.3852 23.6223 16.2903 23.7247 16.1925C24.1319 15.8079 24.5533 15.4414 24.9805 15.0794C25.3443 14.7547 25.6843 14.4043 26.0291 14.0595C22.7807 14.0595 19.5322 14.0595 16.1854 14.0595Z" fill="white"/>
    <path d="M35.4067 2.34142C36.1649 3.02958 36.7319 3.74224 36.8655 4.78099C36.8816 5.89309 36.7483 6.75411 35.9597 7.58068C35.1625 8.27667 34.4375 8.57404 33.3755 8.59142C32.3339 8.46853 31.5527 8.04902 30.8364 7.27306C30.2013 6.34307 30.1283 5.47358 30.2505 4.37267C30.5289 3.39907 31.1367 2.73896 31.9692 2.18517C33.0799 1.66526 34.3538 1.70675 35.4067 2.34142ZM32.1255 3.43517C31.5209 4.10513 31.2838 4.52427 31.3021 5.44139C31.3744 6.02103 31.5788 6.43961 31.9692 6.87267C32.5602 7.31875 33.0437 7.49767 33.7856 7.49767C34.5323 7.27642 35.0358 6.96684 35.5434 6.37462C35.7941 5.74802 35.826 5.19447 35.7192 4.52892C35.4065 3.92581 35.0795 3.43603 34.4692 3.12267C33.5689 2.9006 32.9121 2.88639 32.1255 3.43517Z" fill="white"/>
    <path d="M5.86414 17.4492C6.56481 17.9783 7.04179 18.5189 7.28015 19.373C7.37746 20.3623 7.2288 21.052 6.65515 21.873C6.13526 22.4214 5.63474 22.7731 4.8656 22.8478C3.84915 22.8747 3.25451 22.8033 2.4364 22.1855C1.79518 21.5443 1.52664 20.8808 1.48242 19.9718C1.52815 18.9879 1.90416 18.346 2.59265 17.6543C3.50158 16.9779 4.85915 16.9164 5.86414 17.4492ZM3.0614 18.748C2.69715 19.2823 2.59265 19.5934 2.59265 20.2422C2.77799 20.8793 3.02435 21.1411 3.53015 21.5605C4.03111 21.811 4.54912 21.7929 5.09265 21.7168C5.63064 21.3893 5.99059 21.072 6.1864 20.4668C6.26696 19.8492 6.21127 19.5755 5.91296 19.0215C5.50685 18.5161 5.50685 18.5161 4.9364 18.2793C4.16128 18.2088 3.66812 18.2424 3.0614 18.748Z" fill="white"/>
    <path d="M10.0631 3.78549C10.1763 3.8247 10.2896 3.8639 10.4062 3.9043C10.4836 4.13633 10.4836 4.13633 10.5625 4.37305C10.399 4.6301 10.399 4.6301 10.1329 4.91683C10.031 5.02739 9.92901 5.13796 9.82398 5.25187C9.70676 5.37436 9.58953 5.49685 9.46875 5.62305C9.34198 5.75574 9.21521 5.88844 9.0846 6.02516C8.14052 7.00249 7.18219 7.96599 6.22481 8.93027C5.87257 9.28532 5.52171 9.64166 5.17195 9.99915C4.74725 10.4332 4.32031 10.865 3.89165 11.2952C3.72925 11.4589 3.56765 11.6235 3.40689 11.7888C3.18292 12.0188 2.95619 12.2457 2.72856 12.4721C2.53626 12.6669 2.53626 12.6669 2.34007 12.8655C1.96875 13.123 1.96875 13.123 1.53064 13.0856C1.4174 13.0464 1.30417 13.0072 1.1875 12.9668C1.11016 12.7348 1.11016 12.7348 1.03125 12.498C1.19478 12.241 1.19478 12.241 1.46086 11.9543C1.5628 11.8437 1.66474 11.7331 1.76977 11.6192C1.88699 11.4967 2.00422 11.3742 2.125 11.248C2.25177 11.1153 2.37854 10.9827 2.50915 10.8459C3.45323 9.8686 4.41156 8.9051 5.36894 7.94082C5.72118 7.58577 6.07204 7.22943 6.4218 6.87194C6.84651 6.43786 7.27344 6.00609 7.7021 5.57591C7.8645 5.41217 8.0261 5.24763 8.18686 5.08229C8.41083 4.85226 8.63756 4.62534 8.86519 4.39895C8.99339 4.26913 9.12159 4.13932 9.25368 4.00557C9.625 3.74805 9.625 3.74805 10.0631 3.78549Z" fill="white"/>
    <path d="M4.65523 3.055C5.30078 3.41225 5.6492 3.82659 5.87594 4.52961C6.01533 5.35796 5.87349 6.01766 5.40719 6.71711C4.79742 7.37044 4.32238 7.63363 3.42415 7.68513C2.56629 7.61255 1.99361 7.23289 1.43258 6.59993C1.03051 5.76362 0.939691 5.16313 1.1982 4.26594C1.96608 2.95312 3.20866 2.42348 4.65523 3.055ZM2.28219 4.52961C2.09056 5.09251 2.07501 5.34917 2.31148 5.8968C2.61192 6.26976 2.76131 6.4299 3.21969 6.56086C3.82289 6.5483 4.08051 6.47146 4.53805 6.07258C4.825 5.62704 4.825 5.62704 4.79195 5.06672C4.59455 4.42808 4.42167 4.23244 3.84469 3.90461C3.13178 3.76203 2.76975 4.01496 2.28219 4.52961Z" fill="white"/>
    <path d="M9 9.37357C9.69845 9.71033 10.0983 10.0667 10.4063 10.7798C10.6192 11.7231 10.5978 12.2618 10.0938 13.1236C9.52395 13.71 9.01406 14.0829 8.18945 14.1099C7.43694 14.0978 6.91264 13.9357 6.34375 13.4361C5.89407 12.9106 5.68212 12.399 5.65039 11.7076C5.74513 10.8549 5.94893 10.3701 6.58789 9.7935C7.3625 9.25723 8.07557 9.27956 9 9.37357ZM7.37891 10.5357C6.92716 10.9104 6.92716 10.9104 6.8125 11.4829C6.8125 12.0071 6.81824 12.2407 7.125 12.6548C7.67383 13.0207 7.88511 13.0449 8.53125 12.9673C9.06506 12.6589 9.26917 12.4696 9.46875 11.8833C9.46875 11.2935 9.39223 11.0648 9 10.6236C8.33714 10.3109 8.0598 10.2457 7.37891 10.5357Z" fill="white"/>
  </g>
  <defs>
    <clipPath id="clip0_1_1658">
      <rect width="40" height="40" fill="white" transform="translate(0.25 0.466797)"/>
    </clipPath>
  </defs>
</svg>